<svg width="68" height="70" viewBox="0 0 68 70" fill="none" xmlns="http://www.w3.org/2000/svg">
<path d="M30.4236 3.59766H31.4432V12H30.1248V5.64258H28.6248V4.74023C29.1287 4.68555 29.5115 4.56641 29.7733 4.38281C30.0389 4.19531 30.2557 3.93359 30.4236 3.59766ZM38.8201 12H33.242C33.242 11.4805 33.3201 11.0098 33.4764 10.5879C33.6326 10.1621 33.8358 9.80859 34.0858 9.52734C34.3397 9.24609 34.617 8.98828 34.9178 8.75391C35.2225 8.51953 35.5252 8.30664 35.826 8.11523C36.1268 7.91992 36.4022 7.72852 36.6522 7.54102C36.9061 7.35352 37.1111 7.13477 37.2674 6.88477C37.4236 6.63086 37.5018 6.35547 37.5018 6.05859C37.5018 5.63281 37.369 5.29688 37.1033 5.05078C36.8416 4.80469 36.4744 4.68164 36.0018 4.68164C35.7713 4.68164 35.5545 4.72461 35.3514 4.81055C35.1522 4.89258 34.9959 4.99219 34.8826 5.10938C34.7733 5.22266 34.6756 5.33789 34.5897 5.45508C34.5076 5.57227 34.451 5.67383 34.4197 5.75977L34.3787 5.88281L33.3006 5.40234C33.3162 5.34766 33.3377 5.27734 33.3651 5.19141C33.3963 5.10547 33.4783 4.95312 33.6111 4.73438C33.7479 4.51562 33.9061 4.32227 34.0858 4.1543C34.2654 3.98633 34.5252 3.83203 34.8651 3.69141C35.2049 3.55078 35.5838 3.48047 36.0018 3.48047C36.826 3.48047 37.5018 3.72852 38.0291 4.22461C38.5565 4.7207 38.8201 5.33203 38.8201 6.05859C38.8201 6.44141 38.742 6.79688 38.5858 7.125C38.4295 7.45312 38.2303 7.72852 37.9881 7.95117C37.7498 8.16992 37.4744 8.39648 37.1619 8.63086C36.8533 8.86133 36.5526 9.07227 36.2596 9.26367C35.9666 9.45508 35.6776 9.68555 35.3924 9.95508C35.1111 10.2207 34.8943 10.502 34.742 10.7988H38.8201V12Z" fill="white"/>
<path d="M4.45502 35.9744C3.72845 35.9744 3.08588 35.6893 2.52728 35.119C1.9726 34.5447 1.69525 33.869 1.69525 33.0916C1.69525 32.3065 1.98627 31.6307 2.5683 31.0643C3.15424 30.4979 3.86322 30.2147 4.69525 30.2147C5.52728 30.2147 6.23431 30.4998 6.81635 31.0701C7.40228 31.6365 7.69525 32.3104 7.69525 33.0916C7.69525 33.4119 7.63861 33.7322 7.52533 34.0526C7.41595 34.3729 7.30463 34.6131 7.19135 34.7733L7.03314 35.0135L4.63666 38.7342H3.31244L5.17572 35.8514C4.9765 35.9334 4.73627 35.9744 4.45502 35.9744ZM3.41791 31.867C3.07025 32.2068 2.89642 32.617 2.89642 33.0975C2.89642 33.574 3.07025 33.9822 3.41791 34.3221C3.76556 34.6619 4.19135 34.8318 4.69525 34.8318C5.19916 34.8318 5.62494 34.6619 5.9726 34.3221C6.32025 33.9822 6.49408 33.574 6.49408 33.0975C6.49408 32.617 6.32025 32.2068 5.9726 31.867C5.62494 31.5233 5.19916 31.3514 4.69525 31.3514C4.19135 31.3514 3.76556 31.5233 3.41791 31.867Z" fill="white"/>
<path d="M66.394 34.2928C66.4331 34.3085 66.4858 34.3319 66.5522 34.3632C66.6225 34.3905 66.7436 34.4608 66.9155 34.5741C67.0874 34.6835 67.2397 34.8104 67.3725 34.955C67.5053 35.0995 67.6245 35.3007 67.7299 35.5585C67.8393 35.8124 67.894 36.0917 67.894 36.3964C67.894 37.0839 67.6186 37.6659 67.0678 38.1425C66.521 38.6151 65.7964 38.8514 64.894 38.8514C64.5112 38.8514 64.1479 38.8065 63.8042 38.7167C63.4604 38.6229 63.1753 38.5135 62.9487 38.3885C62.726 38.2596 62.5327 38.1307 62.3686 38.0018C62.2046 37.8729 62.0854 37.7655 62.0112 37.6796L61.894 37.5331L62.7319 36.6952C62.7475 36.7186 62.7749 36.7538 62.8139 36.8007C62.8569 36.8436 62.9467 36.9218 63.0835 37.035C63.2202 37.1444 63.3628 37.2421 63.5112 37.328C63.6635 37.41 63.8628 37.4862 64.1089 37.5565C64.3589 37.6229 64.6206 37.6561 64.894 37.6561C65.4135 37.6561 65.8237 37.5311 66.1245 37.2811C66.4253 37.0272 66.5757 36.7128 66.5757 36.3378C66.5757 35.9589 66.4253 35.6444 66.1245 35.3944C65.8237 35.1405 65.4135 35.0135 64.894 35.0135H64.0561V33.8124H64.894C65.3081 33.8124 65.6303 33.705 65.8608 33.4901C66.0952 33.2753 66.2124 32.9843 66.2124 32.6171C66.2124 32.246 66.0952 31.953 65.8608 31.7382C65.6303 31.5233 65.3081 31.4159 64.894 31.4159C64.5424 31.4159 64.2104 31.4921 63.8979 31.6444C63.5854 31.7968 63.3647 31.9432 63.2358 32.0839L63.0366 32.3124L62.1928 31.4745C62.2163 31.4432 62.2514 31.4003 62.2983 31.3456C62.3491 31.287 62.4585 31.1835 62.6264 31.035C62.7944 30.8866 62.9741 30.7596 63.1655 30.6542C63.3569 30.5448 63.6089 30.4452 63.9214 30.3553C64.2339 30.2616 64.5581 30.2147 64.894 30.2147C65.7182 30.2147 66.3647 30.4276 66.8335 30.8534C67.3022 31.2753 67.5366 31.8221 67.5366 32.494C67.5366 32.7245 67.4956 32.9471 67.4135 33.162C67.3354 33.3729 67.2397 33.5448 67.1264 33.6776C67.0132 33.8104 66.9018 33.9257 66.7924 34.0233C66.687 34.1171 66.5932 34.1835 66.5112 34.2225L66.394 34.2928Z" fill="white"/>
<path d="M34.2967 63.9777C35.0233 63.9777 35.6639 64.2648 36.2186 64.839C36.7772 65.4093 37.0565 66.0831 37.0565 66.8605C37.0565 67.6456 36.7635 68.3214 36.1776 68.8878C35.5955 69.4542 34.8885 69.7374 34.0565 69.7374C33.2244 69.7374 32.5154 69.4542 31.9295 68.8878C31.3475 68.3214 31.0565 67.6456 31.0565 66.8605C31.0565 66.5402 31.1131 66.2198 31.2264 65.8995C31.3397 65.5792 31.451 65.339 31.5604 65.1788L31.7186 64.9386L34.1209 61.2179H35.4393L33.576 64.1007C33.7752 64.0187 34.0154 63.9777 34.2967 63.9777ZM35.3338 68.0909C35.6854 67.7511 35.8611 67.3409 35.8611 66.8605C35.8611 66.38 35.6854 65.9698 35.3338 65.63C34.9861 65.2902 34.5604 65.1202 34.0565 65.1202C33.5526 65.1202 33.1268 65.2902 32.7791 65.63C32.4315 65.9698 32.2576 66.38 32.2576 66.8605C32.2576 67.3409 32.4315 67.7511 32.7791 68.0909C33.1268 68.4308 33.5526 68.6007 34.0565 68.6007C34.5604 68.6007 34.9861 68.4308 35.3338 68.0909Z" fill="white"/>
<line y1="-0.5" x2="3.69268" y2="-0.5" transform="matrix(0.817527 -0.575891 0.571034 0.820926 59.4399 18.8354)" stroke="#9AA0A6"/>
<line y1="-0.5" x2="3.12316" y2="-0.5" transform="matrix(0.483304 -0.875453 0.872851 0.487986 48.572 8.20251)" stroke="#9AA0A6"/>
<line y1="-0.5" x2="3.12288" y2="-0.5" transform="matrix(-0.497636 -0.867386 0.864654 -0.502368 18.1261 8.17712)" stroke="#9AA0A6"/>
<line y1="-0.5" x2="3.11304" y2="-0.5" transform="matrix(-0.864654 -0.502368 0.497636 -0.867386 6.88635 19.488)" stroke="#9AA0A6"/>
<line y1="-0.5" x2="3.11304" y2="-0.5" transform="matrix(-0.864654 -0.502368 0.497636 -0.867386 61.5279 50.7792)" stroke="#9AA0A6"/>
<line y1="-0.5" x2="3.12288" y2="-0.5" transform="matrix(-0.497636 -0.867386 0.864654 -0.502368 49.8242 62.8607)" stroke="#9AA0A6"/>
<line y1="-0.5" x2="3.69268" y2="-0.5" transform="matrix(0.817527 -0.575891 0.571034 0.820926 4.79843 51.6455)" stroke="#9AA0A6"/>
<line y1="-0.5" x2="3.8006" y2="-0.5" transform="matrix(0.497636 -0.867386 0.864654 0.502368 16.572 62.8409)" stroke="#9AA0A6"/>
</svg>
