<svg width="789" height="248" viewBox="0 0 789 248" fill="none" xmlns="http://www.w3.org/2000/svg">
<path opacity="0.2" d="M322.851 19.2528C336.837 6.52222 356.651 -2.73638 375.3 0.735596C397.445 6.52222 417.259 21.5674 433.576 36.6127C509.335 101.423 490.687 146.559 580.432 99.1082C590.922 93.3216 604.908 92.1643 615.398 99.1082C624.722 103.738 631.715 110.681 638.709 117.625C703.978 177.806 769.248 236.83 836.848 294.696C841.51 299.325 847.338 303.955 852 308.584C841.51 306.269 831.021 301.64 821.696 297.011C797.22 285.438 773.91 271.55 749.434 259.976C737.778 254.19 723.792 253.032 712.137 258.819C698.151 266.92 687.661 277.336 673.674 284.28C662.019 290.067 650.364 294.696 638.709 295.853C650.364 283.123 664.35 272.707 673.674 258.819C679.502 251.875 679.502 240.302 672.509 233.358C659.688 217.155 638.709 211.369 624.722 197.481C616.564 190.537 623.557 180.121 625.888 173.177C622.391 148.873 599.081 128.041 573.439 150.031C538.473 178.964 508.17 212.526 470.873 236.83C465.045 240.302 459.218 243.774 453.39 243.774C445.231 240.302 446.397 231.043 444.066 224.099C442.9 217.155 437.072 209.054 428.914 209.054C419.59 210.211 412.596 214.841 405.603 219.47C376.465 236.83 347.327 255.347 315.858 269.235C298.375 276.179 280.892 283.123 262.244 284.28C298.375 261.134 335.672 237.987 367.141 207.897C379.962 195.166 395.113 180.121 397.445 161.604C393.948 139.615 374.134 122.255 372.969 100.266C374.134 88.6923 384.624 80.591 385.789 69.0178C389.286 49.3433 365.975 33.1407 348.492 40.0847C336.837 44.714 327.513 53.9725 318.189 62.0738C270.402 101.423 134.036 212.526 0 319C52.4487 243.774 252.919 80.591 322.851 19.2528Z" fill="white"/>
</svg>
