<svg width="123" height="40" viewBox="0 0 123 40" fill="none" xmlns="http://www.w3.org/2000/svg">
<g clip-path="url(#clip0_554_4319)">
<path d="M118.374 0.105225H3.97896C1.78144 0.105225 0 1.88666 0 4.08418V35.9158C0 38.1134 1.78144 39.8948 3.97896 39.8948H118.374C120.572 39.8948 122.353 38.1134 122.353 35.9158V4.08418C122.353 1.88666 120.572 0.105225 118.374 0.105225Z" fill="black"/>
<path d="M30.2804 20.272C30.2901 19.5172 30.4903 18.7772 30.8627 18.1207C31.235 17.4641 31.7671 16.9127 32.4096 16.5172C32.0015 15.9338 31.463 15.4537 30.837 15.115C30.211 14.7763 29.5147 14.5883 28.8034 14.5661C27.2861 14.4067 25.8152 15.4748 25.042 15.4748C24.2538 15.4748 23.0634 14.5819 21.7815 14.6082C20.9524 14.6351 20.1443 14.8764 19.436 15.3087C18.7277 15.741 18.1433 16.3496 17.74 17.0751C15.9925 20.1031 17.2959 24.5532 18.9699 27.0009C19.8074 28.1994 20.7862 29.5382 22.067 29.4907C23.3203 29.4387 23.7883 28.6909 25.3011 28.6909C26.8 28.6909 27.239 29.4907 28.5458 29.4605C29.8906 29.4387 30.7379 28.2567 31.5461 27.0468C32.1478 26.1928 32.6108 25.249 32.918 24.2502C32.1367 23.9195 31.47 23.3659 31.0009 22.6585C30.5318 21.951 30.2813 21.121 30.2804 20.272ZM27.8124 12.9564C28.5457 12.0754 28.9069 10.9431 28.8195 9.79982C27.6992 9.91758 26.6644 10.4534 25.9212 11.3006C25.5579 11.7144 25.2796 12.196 25.1022 12.7175C24.925 13.2392 24.8521 13.7906 24.8879 14.3404C25.4482 14.3461 26.0025 14.2246 26.5091 13.9848C27.0157 13.7451 27.4614 13.3935 27.8124 12.9564ZM46.1232 26.4566H41.8463L40.8192 29.4918H39.0077L43.0587 18.2621H44.9407L48.9918 29.4918H47.1493L46.1232 26.4566ZM42.2893 25.056H45.6793L44.0082 20.1299H43.9614L42.2893 25.056ZM57.7406 25.3985C57.7406 27.9427 56.38 29.5774 54.3267 29.5774C53.8065 29.6046 53.2893 29.4848 52.8341 29.2314C52.3789 28.978 52.0042 28.6015 51.7528 28.145H51.7139V32.2002H50.0348V21.3044H51.6602V22.6661H51.691C51.9539 22.2117 52.335 21.8372 52.7937 21.5824C53.2524 21.3275 53.7714 21.2018 54.2959 21.2188C56.372 21.2188 57.7406 22.8613 57.7406 25.3985ZM56.0147 25.3985C56.0147 23.7409 55.1588 22.6511 53.8529 22.6511C52.5699 22.6511 51.7069 23.7638 51.7069 25.3985C51.7069 27.0482 52.5699 28.1529 53.8529 28.1529C55.1588 28.1529 56.0147 27.0711 56.0147 25.3985ZM66.7443 25.3985C66.7443 27.9427 65.3836 29.5774 63.3304 29.5774C62.8102 29.6046 62.293 29.4848 61.8378 29.2314C61.3826 28.978 61.0078 28.6015 60.7565 28.145H60.7176V32.2002H59.0385V21.3044H60.6638V22.6661H60.6946C60.9575 22.2117 61.3386 21.8372 61.7973 21.5824C62.256 21.3275 62.7751 21.2018 63.2994 21.2188C65.3758 21.2188 66.7443 22.8613 66.7443 25.3985ZM65.0183 25.3985C65.0183 23.7409 64.1625 22.6511 62.8565 22.6511C61.5736 22.6511 60.7105 23.7638 60.7105 25.3985C60.7105 27.0482 61.5736 28.1529 62.8565 28.1529C64.1625 28.1529 65.0183 27.0711 65.0183 25.3985ZM72.6954 26.363C72.8197 27.4766 73.9007 28.2077 75.3778 28.2077C76.7931 28.2077 77.8113 27.4766 77.8113 26.4724C77.8113 25.6008 77.1972 25.0789 75.743 24.7213L74.2889 24.3706C72.2285 23.8725 71.2721 22.9081 71.2721 21.3433C71.2721 19.4058 72.9592 18.0749 75.3548 18.0749C77.7257 18.0749 79.3511 19.4058 79.4058 21.3433H77.7107C77.6093 20.2226 76.6837 19.5462 75.3309 19.5462C73.9783 19.5462 73.0527 20.2306 73.0527 21.2267C73.0527 22.0206 73.6438 22.4879 75.0901 22.8455L76.3262 23.1493C78.6284 23.6941 79.5849 24.6197 79.5849 26.2622C79.5849 28.3632 77.9128 29.679 75.2533 29.679C72.765 29.679 71.085 28.394 70.9764 26.3629L72.6954 26.363ZM83.2088 19.3669V21.3044H84.7645V22.6353H83.2088V27.1489C83.2088 27.8501 83.5204 28.1769 84.2042 28.1769C84.3889 28.1736 84.5732 28.1607 84.7566 28.138V29.4609C84.4491 29.5184 84.1366 29.5444 83.8239 29.5386C82.1677 29.5386 81.5218 28.916 81.5218 27.3282V22.6353H80.3324V21.3044H81.5218V19.3669H83.2088ZM85.6653 25.3987C85.6653 22.8226 87.1811 21.2039 89.545 21.2039C91.9169 21.2039 93.4257 22.8226 93.4257 25.3987C93.4257 27.9818 91.9248 29.5934 89.545 29.5934C87.1661 29.5934 85.6653 27.9817 85.6653 25.3987ZM91.7148 25.3987C91.7148 23.6315 90.9056 22.5886 89.545 22.5886C88.1844 22.5886 87.3761 23.6395 87.3761 25.3987C87.3761 27.1728 88.1844 28.2078 89.545 28.2078C90.9056 28.2078 91.7148 27.1728 91.7148 25.3987ZM94.81 21.3045H96.4115V22.6981H96.4503C96.5586 22.2629 96.8135 21.8782 97.1718 21.6088C97.5301 21.3394 97.9702 21.2018 98.418 21.2189C98.6116 21.2182 98.8046 21.2393 98.9934 21.2815V22.8535C98.7491 22.7788 98.4942 22.7445 98.2389 22.752C97.9949 22.7421 97.7517 22.7851 97.526 22.8782C97.3002 22.9712 97.0973 23.1121 96.9311 23.291C96.7649 23.47 96.6392 23.6827 96.563 23.9149C96.4867 24.147 96.4615 24.3929 96.4891 24.6356V29.4919H94.81V21.3045ZM106.736 27.0871C106.51 28.5735 105.064 29.5934 103.214 29.5934C100.833 29.5934 99.3565 27.9976 99.3565 25.4375C99.3565 22.8695 100.841 21.2039 103.143 21.2039C105.406 21.2039 106.83 22.7599 106.83 25.2423V25.8182H101.051V25.9197C101.025 26.221 101.062 26.5245 101.163 26.8102C101.262 27.0958 101.421 27.3569 101.629 27.5763C101.837 27.7956 102.09 27.9681 102.369 28.0824C102.649 28.1966 102.95 28.2499 103.253 28.2388C103.649 28.276 104.047 28.1839 104.388 27.9764C104.728 27.769 104.992 27.4571 105.142 27.0871H106.736ZM101.059 24.6436H105.15C105.164 24.3727 105.124 24.1015 105.029 23.8473C104.935 23.5929 104.788 23.361 104.599 23.1659C104.411 22.9707 104.185 22.8166 103.934 22.7134C103.683 22.6101 103.414 22.5598 103.143 22.5657C102.87 22.564 102.598 22.6166 102.345 22.7203C102.093 22.8241 101.862 22.977 101.669 23.1702C101.475 23.3633 101.322 23.593 101.216 23.8459C101.112 24.0988 101.059 24.3699 101.059 24.6436ZM41.0953 12.0907H41.8162C41.9403 12.1061 42.0662 12.0956 42.1861 12.06C42.306 12.0243 42.4172 11.9642 42.5127 11.8834C42.6082 11.8026 42.686 11.7028 42.741 11.5905C42.7961 11.4781 42.8273 11.3555 42.8327 11.2305C42.8327 10.7328 42.4586 10.4114 41.8241 10.4114C41.697 10.3936 41.5676 10.4015 41.4435 10.4346C41.3195 10.4677 41.2034 10.5253 41.1019 10.6041C41.0006 10.6829 40.9159 10.7813 40.853 10.8933C40.7903 11.0053 40.7505 11.1288 40.7362 11.2566H39.9446C39.9583 11.0248 40.0195 10.7983 40.1243 10.5912C40.2291 10.3841 40.3755 10.2008 40.5542 10.0527C40.733 9.90474 40.9402 9.7951 41.1631 9.7307C41.3859 9.66629 41.6197 9.64849 41.8497 9.67841C42.9113 9.67841 43.6586 10.2732 43.6586 11.1293C43.6611 11.4162 43.5652 11.6951 43.3869 11.9198C43.2087 12.1444 42.9589 12.301 42.6792 12.3635V12.4271C43.0107 12.4418 43.3231 12.5873 43.5478 12.8318C43.7725 13.0763 43.8914 13.3999 43.8783 13.7319C43.8538 13.9705 43.7819 14.2019 43.6669 14.4124C43.5519 14.6229 43.396 14.8082 43.2085 14.9576C43.0209 15.107 42.8054 15.2174 42.5747 15.2825C42.344 15.3474 42.1026 15.3656 41.8647 15.3361C41.6264 15.3686 41.3839 15.3528 41.1518 15.2895C40.9197 15.2263 40.7026 15.1169 40.5136 14.9678C40.3247 14.8188 40.1677 14.6333 40.0518 14.4222C39.936 14.2111 39.8639 13.979 39.8397 13.7394H40.6436C40.6921 14.2556 41.1659 14.5885 41.8647 14.5885C42.5636 14.5885 43.0198 14.2145 43.0198 13.6873C43.0198 13.1526 42.5901 12.8232 41.8391 12.8232H41.0953V12.0907ZM44.7918 14.0535C44.7918 13.3205 45.3379 12.8979 46.305 12.8379L47.4072 12.7742V12.4228C47.4072 11.9927 47.1239 11.7499 46.5742 11.7499C46.126 11.7499 45.8162 11.9146 45.7262 12.2025H44.9488C45.0309 11.5031 45.6892 11.0544 46.6121 11.0544C47.6322 11.0544 48.2075 11.5626 48.2075 12.4228V15.2051H47.4336V14.6328H47.3701C47.2412 14.838 47.06 15.0054 46.8454 15.1177C46.6307 15.2301 46.39 15.2834 46.1479 15.2721C45.9771 15.2899 45.8046 15.2716 45.6412 15.2186C45.4779 15.1655 45.3275 15.0788 45.1998 14.964C45.0719 14.8492 44.9696 14.7088 44.8993 14.5519C44.8291 14.3952 44.7924 14.2254 44.7918 14.0535ZM47.4072 13.7055V13.3651L46.4135 13.4287C45.8532 13.4662 45.5991 13.657 45.5991 14.016C45.5991 14.3824 45.9168 14.5957 46.3536 14.5957C46.4816 14.6086 46.6108 14.5957 46.7337 14.5577C46.8566 14.5196 46.9706 14.4572 47.0689 14.3742C47.1673 14.2911 47.2478 14.1891 47.3059 14.0743C47.364 13.9594 47.3984 13.8339 47.4072 13.7055ZM50.3387 11.8098V15.2054H49.5357V11.1333H52.2147V11.8097L50.3387 11.8098ZM57.0808 13.1674C57.0808 14.4611 56.427 15.2722 55.3999 15.2722C55.1477 15.2894 54.896 15.2342 54.6742 15.1131C54.4523 14.9919 54.2697 14.8098 54.1478 14.5882H54.0843V16.5589H53.2813V11.133H54.0542V11.8061H54.1143C54.2384 11.5768 54.4234 11.3862 54.6488 11.2556C54.8743 11.1249 55.1314 11.0591 55.392 11.0656C56.427 11.0655 57.0808 11.8731 57.0808 13.1674ZM56.2549 13.1674C56.2549 12.3072 55.8481 11.7875 55.1678 11.7875C54.492 11.7875 54.0692 12.3182 54.0692 13.1708C54.0692 14.0196 54.4919 14.5507 55.1643 14.5507C55.8481 14.5507 56.2549 14.031 56.2549 13.1674ZM58.1503 16.6639V15.9719C58.2372 15.983 58.3247 15.9879 58.4123 15.9869C58.5834 15.9996 58.7531 15.9487 58.889 15.8437C59.0247 15.7389 59.1171 15.5875 59.1482 15.4187L59.2082 15.2204L57.7356 11.1333H58.6099L59.63 14.3677H59.6935L60.71 11.1333H61.5615L60.0448 15.3736C59.6971 16.3645 59.3124 16.6824 58.4829 16.6824C58.4159 16.6824 58.2253 16.6749 58.1503 16.6639ZM62.1875 14.0485H62.987C63.0656 14.4075 63.4017 14.5947 63.872 14.5947C64.4068 14.5947 64.7349 14.359 64.7349 13.9924C64.7349 13.5999 64.4403 13.4127 63.872 13.4127H63.2632V12.7884H63.8615C64.3467 12.7884 64.5938 12.6016 64.5938 12.2612C64.5938 11.9621 64.3547 11.7339 63.8615 11.7339C63.4123 11.7339 63.0841 11.9246 63.032 12.2461H62.2581C62.316 11.8767 62.5164 11.5448 62.8162 11.3218C63.116 11.0988 63.4913 11.0024 63.8615 11.0534C64.8286 11.0534 65.3817 11.491 65.3817 12.179C65.3863 12.3706 65.3249 12.5579 65.208 12.7096C65.0911 12.8614 64.9256 12.9683 64.7394 13.0127V13.0762C64.9612 13.1049 65.1648 13.214 65.3114 13.3828C65.4581 13.5517 65.5378 13.7687 65.5353 13.9925C65.5353 14.7665 64.8771 15.2787 63.872 15.2787C62.9835 15.2787 62.2617 14.8712 62.1875 14.0485ZM66.6913 15.2054V11.1333H67.4872V13.9341H67.5508L69.4258 11.1333H70.2217V15.2054H69.4258V12.3896H69.3659L67.4872 15.2054H66.6913ZM74.6061 11.8097H73.3249V15.2054H72.5211V11.8097H71.2397V11.1333H74.6061V11.8097ZM78.9317 14.1056C78.8223 14.4778 78.5857 14.7996 78.2633 15.015C77.9409 15.2303 77.5532 15.3254 77.1678 15.2837C76.8997 15.2908 76.6333 15.2394 76.3871 15.1332C76.1409 15.0268 75.9207 14.8682 75.7419 14.6682C75.5631 14.4683 75.4299 14.2317 75.3516 13.9751C75.2732 13.7184 75.2516 13.4478 75.2883 13.1819C75.2526 12.9152 75.2746 12.644 75.3527 12.3866C75.4309 12.1292 75.5634 11.8915 75.7412 11.6898C75.9191 11.488 76.1382 11.327 76.3837 11.2174C76.6292 11.1078 76.8954 11.0521 77.1642 11.0544C78.2963 11.0544 78.9802 11.8285 78.9802 13.1073V13.3877H76.1072V13.4328C76.0945 13.5822 76.1131 13.7327 76.1619 13.8745C76.2108 14.0163 76.2887 14.1463 76.3908 14.2562C76.4929 14.366 76.6167 14.4534 76.7545 14.5124C76.8923 14.5715 77.0409 14.6011 77.1908 14.5993C77.3827 14.6223 77.5771 14.5876 77.7493 14.4997C77.9215 14.4118 78.0637 14.2746 78.1579 14.1056H78.9317ZM76.1071 12.7933H78.1613C78.1715 12.6568 78.153 12.5195 78.1069 12.3906C78.061 12.2616 77.9886 12.1436 77.8944 12.0442C77.8002 11.9448 77.6862 11.8663 77.5598 11.8137C77.4335 11.761 77.2975 11.7354 77.1607 11.7384C77.0218 11.7365 76.8839 11.7626 76.7552 11.8149C76.6265 11.8672 76.5096 11.9449 76.4114 12.0432C76.3131 12.1416 76.2356 12.2587 76.1834 12.3875C76.1312 12.5163 76.1052 12.6543 76.1072 12.7933H76.1071ZM82.3357 11.1333H84.1701C84.9661 11.1333 85.4328 11.5369 85.4328 12.1687C85.4341 12.3693 85.3664 12.5642 85.2413 12.7207C85.1162 12.8773 84.9411 12.9861 84.7454 13.0289V13.0926C84.9831 13.1076 85.2058 13.2133 85.3677 13.388C85.5297 13.5628 85.6183 13.793 85.6154 14.0313C85.6154 14.7417 85.0816 15.2054 84.1887 15.2054H82.3357V11.1333ZM83.1316 11.7502V12.8046H83.9274C84.4128 12.8046 84.6449 12.6179 84.6449 12.2734C84.6449 11.956 84.4428 11.7502 84.0166 11.7502H83.1316ZM83.1316 13.3955V14.5885H84.0837C84.5584 14.5885 84.8126 14.3788 84.8126 13.9938C84.8126 13.5862 84.5249 13.3955 83.9831 13.3955H83.1316Z" fill="white"/>
</g>
<defs>
<clipPath id="clip0_554_4319">
<rect width="122.353" height="40" fill="white"/>
</clipPath>
</defs>
</svg>
