<svg width="24" height="24" viewBox="0 0 24 24" fill="none" xmlns="http://www.w3.org/2000/svg">
<circle cx="12" cy="12" r="12" fill="#0052B5"/>
<path d="M11.9388 7.12894L10.8804 7.66476L11.2288 6.60192L10.5179 5.89805L11.5789 5.89278L11.9961 4.79395L12.4632 5.88838L13.3474 5.88398L12.6435 6.59489L13.0025 7.65421L11.9388 7.12894Z" fill="#FFDB44"/>
<path d="M11.9388 17.0977L10.8804 16.5619L11.2288 17.6247L10.5179 18.3286L11.5789 18.3338L11.9961 19.4327L12.4632 18.3382L13.3474 18.3426L12.6435 17.6317L13.0025 16.5724L11.9388 17.0977Z" fill="#FFDB44"/>
<path d="M16.8552 12.0968L16.111 11.1729L17.223 11.2927L17.7636 10.4509L17.9895 11.4877L19.151 11.6672L18.1777 12.3517L18.3659 13.2157L17.5241 12.675L16.5626 13.2465L16.8552 12.0968Z" fill="#FFDB44"/>
<path d="M15.5417 8.79615L14.3775 8.5678L15.3058 7.94394L15.1781 6.95172L16.0181 7.60006L17.0227 6.99007L16.718 8.14034L17.418 8.68063L16.4258 8.80839L16.0575 9.86448L15.5417 8.79615Z" fill="#FFDB44"/>
<path d="M15.5573 15.4511L16.063 14.378L16.4413 15.4306L17.4346 15.549L16.6008 16.2052L16.947 17.3284L15.9059 16.7521L15.2111 17.2989L15.3295 16.3055L14.3953 15.6905L15.5573 15.4511Z" fill="#FFDB44"/>
<path d="M16.8552 12.0968L16.111 11.1729L17.223 11.2927L17.7636 10.4509L17.9895 11.4877L19.151 11.6672L18.1777 12.3517L18.3659 13.2157L17.5241 12.675L16.5626 13.2465L16.8552 12.0968Z" fill="#FFDB44"/>
<path d="M7.17754 12.0968L7.92177 11.1729L6.80971 11.2927L6.26908 10.4509L6.04325 11.4877L4.88168 11.6672L5.85505 12.3517L5.66685 13.2157L6.50859 12.675L7.47009 13.2465L7.17754 12.0968Z" fill="#FFDB44"/>
<path d="M8.49107 8.79615L9.65522 8.5678L8.72689 7.94394L8.85465 6.95172L8.01467 7.60006L7.01 6.99007L7.31468 8.14034L6.6147 8.68063L7.60691 8.80839L7.97526 9.86448L8.49107 8.79615Z" fill="#FFDB44"/>
<path d="M8.47548 15.4511L7.96976 14.378L7.59147 15.4306L6.5981 15.549L7.43193 16.2052L7.08574 17.3284L8.12679 16.7521L8.82164 17.2989L8.70325 16.3055L9.63742 15.6905L8.47548 15.4511Z" fill="#FFDB44"/>
<path d="M7.17754 12.0968L7.92177 11.1729L6.80971 11.2927L6.26908 10.4509L6.04325 11.4877L4.88168 11.6672L5.85505 12.3517L5.66685 13.2157L6.50859 12.675L7.47009 13.2465L7.17754 12.0968Z" fill="#FFDB44"/>
</svg>
