<svg width="368" height="92" viewBox="0 0 368 92" fill="none" xmlns="http://www.w3.org/2000/svg">
<circle cx="360" cy="10" r="7.5" fill="#F5F6F7" stroke="#0D54A5"/>
<circle cx="360" cy="10" r="4" fill="#0D54A5"/>
<path d="M3.04199 7.20703C2.27181 7.98633 1.88672 8.9502 1.88672 10.0986C1.88672 11.2471 2.27181 12.2109 3.04199 12.9902C3.81217 13.7695 4.75781 14.1592 5.87891 14.1592C7 14.1592 7.94564 13.7695 8.71582 12.9902C9.486 12.2109 9.87109 11.2471 9.87109 10.0986C9.87109 8.9502 9.486 7.98633 8.71582 7.20703C7.94564 6.42773 7 6.03809 5.87891 6.03809C4.75781 6.03809 3.81217 6.42773 3.04199 7.20703ZM9.44727 6.53027C10.4271 7.51009 10.917 8.69954 10.917 10.0986C10.917 11.4977 10.4271 12.6872 9.44727 13.667C8.46745 14.6468 7.27799 15.1367 5.87891 15.1367C4.47982 15.1367 3.29036 14.6468 2.31055 13.667C1.33073 12.6872 0.84082 11.4977 0.84082 10.0986C0.84082 8.69954 1.33073 7.51009 2.31055 6.53027C3.29036 5.55046 4.47982 5.06055 5.87891 5.06055C7.27799 5.06055 8.46745 5.55046 9.44727 6.53027ZM17.6367 15V12.0605H13.7881V15H12.8105V8.28027H13.7881V11.1514H17.6367V8.28027H18.6211V15H17.6367ZM24.0283 14.1182C23.3675 13.4346 23.0371 12.6074 23.0371 11.6367C23.0371 10.666 23.3675 9.84115 24.0283 9.16211C24.6937 8.47852 25.4821 8.13672 26.3936 8.13672C26.9176 8.13672 27.4053 8.25065 27.8564 8.47852C28.3122 8.70182 28.638 8.92513 28.834 9.14844L29.1279 9.46973L28.4238 10.167C28.4056 10.1396 28.3783 10.1009 28.3418 10.0508C28.3053 10.0007 28.2233 9.90951 28.0957 9.77734C27.9727 9.64518 27.8382 9.53125 27.6924 9.43555C27.5465 9.33529 27.3574 9.24642 27.125 9.16895C26.8926 9.09147 26.6488 9.05273 26.3936 9.05273C25.751 9.05273 25.1927 9.30339 24.7188 9.80469C24.2493 10.3014 24.0146 10.9144 24.0146 11.6436C24.0146 12.3682 24.2493 12.9811 24.7188 13.4824C25.1927 13.9792 25.751 14.2275 26.3936 14.2275C26.7855 14.2275 27.1569 14.1341 27.5078 13.9473C27.8587 13.7604 28.1139 13.5736 28.2734 13.3867L28.499 13.1133L29.1963 13.7422C29.1689 13.7786 29.1257 13.8311 29.0664 13.8994C29.0117 13.9632 28.8932 14.0749 28.7109 14.2344C28.5286 14.3893 28.3372 14.5283 28.1367 14.6514C27.9362 14.7699 27.6764 14.8815 27.3574 14.9863C27.043 15.0866 26.7217 15.1367 26.3936 15.1367C25.4775 15.1367 24.6891 14.7972 24.0283 14.1182ZM29.8936 9.18945V8.28027H35.6289V9.18945H33.25V15H32.2725V9.18945H29.8936ZM38.5068 11.1514L41.0977 10.7275C41.0977 10.2308 40.9404 9.82747 40.626 9.51758C40.3115 9.20768 39.9082 9.05273 39.416 9.05273C39.0605 9.05273 38.7256 9.13477 38.4111 9.29883C38.1012 9.45833 37.8757 9.6224 37.7344 9.79102L37.5225 10.0303L36.8936 9.40137C36.9209 9.36491 36.9574 9.31934 37.0029 9.26465C37.0531 9.2054 37.1579 9.10514 37.3174 8.96387C37.4814 8.81803 37.6523 8.68815 37.8301 8.57422C38.0078 8.46029 38.2402 8.36003 38.5273 8.27344C38.819 8.18229 39.1152 8.13672 39.416 8.13672C40.1816 8.13672 40.8151 8.38509 41.3164 8.88184C41.8223 9.37858 42.0752 9.99382 42.0752 10.7275V15H41.0977V14.0908C41.0794 14.1182 41.0498 14.1569 41.0088 14.207C40.9723 14.2526 40.8857 14.3369 40.749 14.46C40.6169 14.5785 40.4733 14.6855 40.3184 14.7812C40.1634 14.8724 39.9583 14.9544 39.7031 15.0273C39.4525 15.1003 39.1927 15.1367 38.9238 15.1367C38.2539 15.1367 37.6888 14.9385 37.2285 14.542C36.7728 14.1455 36.5449 13.6921 36.5449 13.1816C36.5449 12.6211 36.7135 12.1699 37.0508 11.8281C37.388 11.4818 37.8734 11.2562 38.5068 11.1514ZM38.9238 14.2275C39.5573 14.2275 40.0768 14.0202 40.4824 13.6055C40.8926 13.1908 41.0977 12.653 41.0977 11.9922V11.5684L38.7871 11.9922C37.9486 12.1517 37.527 12.5482 37.5225 13.1816C37.5225 13.4824 37.6455 13.7331 37.8916 13.9336C38.1423 14.1296 38.4863 14.2275 38.9238 14.2275ZM49.1367 15V12.0605H45.2881V15H44.3105V8.28027H45.2881V11.1514H49.1367V8.28027H50.1211V15H49.1367ZM52.3633 15V8.28027H53.3408V14.0908H57.0527V8.28027H58.0303V14.0908H59.083V16.6816H58.0986V15H52.3633ZM62.0908 15.9775L62.4395 15L59.7051 8.28027H60.7578L62.9316 13.7422L65.0986 8.28027H66.1514L63.0684 15.9775C62.7904 16.6885 62.4919 17.1921 62.1729 17.4883C61.8538 17.7891 61.4528 17.9395 60.9697 17.9395C60.8193 17.9395 60.6735 17.9281 60.5322 17.9053C60.3955 17.8825 60.293 17.8574 60.2246 17.8301L60.1289 17.8027V16.8867C60.3613 16.9779 60.5938 17.0257 60.8262 17.0303C61.4186 17.0303 61.8402 16.6794 62.0908 15.9775ZM73.4316 12.0059L67.9697 11.9922C68.0062 12.5983 68.2546 13.1224 68.7148 13.5645C69.1797 14.0065 69.7243 14.2275 70.3486 14.2275C70.7679 14.2275 71.1576 14.1341 71.5176 13.9473C71.8776 13.7604 72.1328 13.5736 72.2832 13.3867L72.5225 13.1133L73.1514 13.7422C73.124 13.7786 73.083 13.8311 73.0283 13.8994C72.9782 13.9632 72.8643 14.0749 72.6865 14.2344C72.5133 14.3893 72.3242 14.5283 72.1191 14.6514C71.9186 14.7699 71.6566 14.8815 71.333 14.9863C71.014 15.0866 70.6859 15.1367 70.3486 15.1367C69.4326 15.1367 68.6442 14.7972 67.9834 14.1182C67.3226 13.4346 66.9922 12.6074 66.9922 11.6367C66.9922 10.666 67.318 9.84115 67.9697 9.16211C68.626 8.47852 69.3962 8.13672 70.2803 8.13672C71.1963 8.13672 71.9619 8.45573 72.5771 9.09375C73.1924 9.72721 73.5 10.5293 73.5 11.5L73.4316 12.0059ZM71.7842 9.64746C71.3695 9.25098 70.8682 9.05273 70.2803 9.05273C69.6924 9.05273 69.1797 9.26009 68.7422 9.6748C68.3047 10.0895 68.0472 10.5817 67.9697 11.1514H72.5225C72.4495 10.5452 72.2035 10.0439 71.7842 9.64746ZM74.4092 9.18945V8.28027H80.1445V9.18945H77.7656V15H76.7881V9.18945H74.4092ZM85.6885 6.18164V9.12109H88.416C89.2819 9.12109 90.0111 9.4082 90.6035 9.98242C91.2005 10.5566 91.499 11.2493 91.499 12.0605C91.499 12.8717 91.2005 13.5645 90.6035 14.1387C90.0111 14.7129 89.2819 15 88.416 15H84.6357V5.19727H90.7266V6.18164H85.6885ZM85.6885 14.0225H88.416C89.0039 14.0225 89.4893 13.8356 89.8721 13.4619C90.2549 13.0882 90.4463 12.6211 90.4463 12.0605C90.4463 11.5 90.2549 11.0329 89.8721 10.6592C89.4893 10.2855 89.0039 10.0986 88.416 10.0986H85.6885V14.0225ZM94.8623 11.1514L97.4531 10.7275C97.4531 10.2308 97.2959 9.82747 96.9814 9.51758C96.667 9.20768 96.2637 9.05273 95.7715 9.05273C95.416 9.05273 95.0811 9.13477 94.7666 9.29883C94.4567 9.45833 94.2311 9.6224 94.0898 9.79102L93.8779 10.0303L93.249 9.40137C93.2764 9.36491 93.3128 9.31934 93.3584 9.26465C93.4085 9.2054 93.5133 9.10514 93.6729 8.96387C93.8369 8.81803 94.0078 8.68815 94.1855 8.57422C94.3633 8.46029 94.5957 8.36003 94.8828 8.27344C95.1745 8.18229 95.4707 8.13672 95.7715 8.13672C96.5371 8.13672 97.1706 8.38509 97.6719 8.88184C98.1777 9.37858 98.4307 9.99382 98.4307 10.7275V15H97.4531V14.0908C97.4349 14.1182 97.4053 14.1569 97.3643 14.207C97.3278 14.2526 97.2412 14.3369 97.1045 14.46C96.9723 14.5785 96.8288 14.6855 96.6738 14.7812C96.5189 14.8724 96.3138 14.9544 96.0586 15.0273C95.8079 15.1003 95.5482 15.1367 95.2793 15.1367C94.6094 15.1367 94.0443 14.9385 93.584 14.542C93.1283 14.1455 92.9004 13.6921 92.9004 13.1816C92.9004 12.6211 93.069 12.1699 93.4062 11.8281C93.7435 11.4818 94.2288 11.2562 94.8623 11.1514ZM95.2793 14.2275C95.9128 14.2275 96.4323 14.0202 96.8379 13.6055C97.248 13.1908 97.4531 12.653 97.4531 11.9922V11.5684L95.1426 11.9922C94.304 12.1517 93.8825 12.5482 93.8779 13.1816C93.8779 13.4824 94.001 13.7331 94.2471 13.9336C94.4977 14.1296 94.8418 14.2275 95.2793 14.2275ZM105 15V12.2725C104.485 12.6462 103.856 12.833 103.113 12.833C102.348 12.833 101.723 12.5938 101.24 12.1152C100.762 11.6322 100.522 11.0078 100.522 10.2422V8.28027H101.5V10.2422C101.5 10.7253 101.657 11.1263 101.972 11.4453C102.286 11.7598 102.689 11.917 103.182 11.917C103.519 11.917 103.838 11.8669 104.139 11.7666C104.444 11.6618 104.663 11.5547 104.795 11.4453L105 11.2881V8.28027H105.984V15H105ZM109.696 11.1514L112.287 10.7275C112.287 10.2308 112.13 9.82747 111.815 9.51758C111.501 9.20768 111.098 9.05273 110.605 9.05273C110.25 9.05273 109.915 9.13477 109.601 9.29883C109.291 9.45833 109.065 9.6224 108.924 9.79102L108.712 10.0303L108.083 9.40137C108.11 9.36491 108.147 9.31934 108.192 9.26465C108.243 9.2054 108.347 9.10514 108.507 8.96387C108.671 8.81803 108.842 8.68815 109.02 8.57422C109.197 8.46029 109.43 8.36003 109.717 8.27344C110.008 8.18229 110.305 8.13672 110.605 8.13672C111.371 8.13672 112.005 8.38509 112.506 8.88184C113.012 9.37858 113.265 9.99382 113.265 10.7275V15H112.287V14.0908C112.269 14.1182 112.239 14.1569 112.198 14.207C112.162 14.2526 112.075 14.3369 111.938 14.46C111.806 14.5785 111.663 14.6855 111.508 14.7812C111.353 14.8724 111.148 14.9544 110.893 15.0273C110.642 15.1003 110.382 15.1367 110.113 15.1367C109.443 15.1367 108.878 14.9385 108.418 14.542C107.962 14.1455 107.734 13.6921 107.734 13.1816C107.734 12.6211 107.903 12.1699 108.24 11.8281C108.577 11.4818 109.063 11.2562 109.696 11.1514ZM110.113 14.2275C110.747 14.2275 111.266 14.0202 111.672 13.6055C112.082 13.1908 112.287 12.653 112.287 11.9922V11.5684L109.977 11.9922C109.138 12.1517 108.716 12.5482 108.712 13.1816C108.712 13.4824 108.835 13.7331 109.081 13.9336C109.332 14.1296 109.676 14.2275 110.113 14.2275ZM114.659 9.18945V8.28027H120.395V9.18945H118.016V15H117.038V9.18945H114.659ZM123.272 11.1514L125.863 10.7275C125.863 10.2308 125.706 9.82747 125.392 9.51758C125.077 9.20768 124.674 9.05273 124.182 9.05273C123.826 9.05273 123.491 9.13477 123.177 9.29883C122.867 9.45833 122.641 9.6224 122.5 9.79102L122.288 10.0303L121.659 9.40137C121.687 9.36491 121.723 9.31934 121.769 9.26465C121.819 9.2054 121.924 9.10514 122.083 8.96387C122.247 8.81803 122.418 8.68815 122.596 8.57422C122.773 8.46029 123.006 8.36003 123.293 8.27344C123.585 8.18229 123.881 8.13672 124.182 8.13672C124.947 8.13672 125.581 8.38509 126.082 8.88184C126.588 9.37858 126.841 9.99382 126.841 10.7275V15H125.863V14.0908C125.845 14.1182 125.815 14.1569 125.774 14.207C125.738 14.2526 125.651 14.3369 125.515 14.46C125.382 14.5785 125.239 14.6855 125.084 14.7812C124.929 14.8724 124.724 14.9544 124.469 15.0273C124.218 15.1003 123.958 15.1367 123.689 15.1367C123.02 15.1367 122.454 14.9385 121.994 14.542C121.538 14.1455 121.311 13.6921 121.311 13.1816C121.311 12.6211 121.479 12.1699 121.816 11.8281C122.154 11.4818 122.639 11.2562 123.272 11.1514ZM123.689 14.2275C124.323 14.2275 124.842 14.0202 125.248 13.6055C125.658 13.1908 125.863 12.653 125.863 11.9922V11.5684L123.553 11.9922C122.714 12.1517 122.293 12.5482 122.288 13.1816C122.288 13.4824 122.411 13.7331 122.657 13.9336C122.908 14.1296 123.252 14.2275 123.689 14.2275Z" fill="#68707A"/>
<circle cx="360" cy="46" r="7.5" stroke="#68707A"/>
<path d="M3.04199 43.207C2.27181 43.9863 1.88672 44.9502 1.88672 46.0986C1.88672 47.2471 2.27181 48.2109 3.04199 48.9902C3.81217 49.7695 4.75781 50.1592 5.87891 50.1592C7 50.1592 7.94564 49.7695 8.71582 48.9902C9.486 48.2109 9.87109 47.2471 9.87109 46.0986C9.87109 44.9502 9.486 43.9863 8.71582 43.207C7.94564 42.4277 7 42.0381 5.87891 42.0381C4.75781 42.0381 3.81217 42.4277 3.04199 43.207ZM9.44727 42.5303C10.4271 43.5101 10.917 44.6995 10.917 46.0986C10.917 47.4977 10.4271 48.6872 9.44727 49.667C8.46745 50.6468 7.27799 51.1367 5.87891 51.1367C4.47982 51.1367 3.29036 50.6468 2.31055 49.667C1.33073 48.6872 0.84082 47.4977 0.84082 46.0986C0.84082 44.6995 1.33073 43.5101 2.31055 42.5303C3.29036 41.5505 4.47982 41.0605 5.87891 41.0605C7.27799 41.0605 8.46745 41.5505 9.44727 42.5303ZM17.6367 51V48.0605H13.7881V51H12.8105V44.2803H13.7881V47.1514H17.6367V44.2803H18.6211V51H17.6367ZM24.0283 50.1182C23.3675 49.4346 23.0371 48.6074 23.0371 47.6367C23.0371 46.666 23.3675 45.8411 24.0283 45.1621C24.6937 44.4785 25.4821 44.1367 26.3936 44.1367C26.9176 44.1367 27.4053 44.2507 27.8564 44.4785C28.3122 44.7018 28.638 44.9251 28.834 45.1484L29.1279 45.4697L28.4238 46.167C28.4056 46.1396 28.3783 46.1009 28.3418 46.0508C28.3053 46.0007 28.2233 45.9095 28.0957 45.7773C27.9727 45.6452 27.8382 45.5312 27.6924 45.4355C27.5465 45.3353 27.3574 45.2464 27.125 45.1689C26.8926 45.0915 26.6488 45.0527 26.3936 45.0527C25.751 45.0527 25.1927 45.3034 24.7188 45.8047C24.2493 46.3014 24.0146 46.9144 24.0146 47.6436C24.0146 48.3682 24.2493 48.9811 24.7188 49.4824C25.1927 49.9792 25.751 50.2275 26.3936 50.2275C26.7855 50.2275 27.1569 50.1341 27.5078 49.9473C27.8587 49.7604 28.1139 49.5736 28.2734 49.3867L28.499 49.1133L29.1963 49.7422C29.1689 49.7786 29.1257 49.8311 29.0664 49.8994C29.0117 49.9632 28.8932 50.0749 28.7109 50.2344C28.5286 50.3893 28.3372 50.5283 28.1367 50.6514C27.9362 50.7699 27.6764 50.8815 27.3574 50.9863C27.043 51.0866 26.7217 51.1367 26.3936 51.1367C25.4775 51.1367 24.6891 50.7972 24.0283 50.1182ZM29.8936 45.1895V44.2803H35.6289V45.1895H33.25V51H32.2725V45.1895H29.8936ZM38.5068 47.1514L41.0977 46.7275C41.0977 46.2308 40.9404 45.8275 40.626 45.5176C40.3115 45.2077 39.9082 45.0527 39.416 45.0527C39.0605 45.0527 38.7256 45.1348 38.4111 45.2988C38.1012 45.4583 37.8757 45.6224 37.7344 45.791L37.5225 46.0303L36.8936 45.4014C36.9209 45.3649 36.9574 45.3193 37.0029 45.2646C37.0531 45.2054 37.1579 45.1051 37.3174 44.9639C37.4814 44.818 37.6523 44.6882 37.8301 44.5742C38.0078 44.4603 38.2402 44.36 38.5273 44.2734C38.819 44.1823 39.1152 44.1367 39.416 44.1367C40.1816 44.1367 40.8151 44.3851 41.3164 44.8818C41.8223 45.3786 42.0752 45.9938 42.0752 46.7275V51H41.0977V50.0908C41.0794 50.1182 41.0498 50.1569 41.0088 50.207C40.9723 50.2526 40.8857 50.3369 40.749 50.46C40.6169 50.5785 40.4733 50.6855 40.3184 50.7812C40.1634 50.8724 39.9583 50.9544 39.7031 51.0273C39.4525 51.1003 39.1927 51.1367 38.9238 51.1367C38.2539 51.1367 37.6888 50.9385 37.2285 50.542C36.7728 50.1455 36.5449 49.6921 36.5449 49.1816C36.5449 48.6211 36.7135 48.1699 37.0508 47.8281C37.388 47.4818 37.8734 47.2562 38.5068 47.1514ZM38.9238 50.2275C39.5573 50.2275 40.0768 50.0202 40.4824 49.6055C40.8926 49.1908 41.0977 48.653 41.0977 47.9922V47.5684L38.7871 47.9922C37.9486 48.1517 37.527 48.5482 37.5225 49.1816C37.5225 49.4824 37.6455 49.7331 37.8916 49.9336C38.1423 50.1296 38.4863 50.2275 38.9238 50.2275ZM49.1367 51V48.0605H45.2881V51H44.3105V44.2803H45.2881V47.1514H49.1367V44.2803H50.1211V51H49.1367ZM52.3633 51V44.2803H53.3408V50.0908H57.0527V44.2803H58.0303V50.0908H59.083V52.6816H58.0986V51H52.3633ZM62.0908 51.9775L62.4395 51L59.7051 44.2803H60.7578L62.9316 49.7422L65.0986 44.2803H66.1514L63.0684 51.9775C62.7904 52.6885 62.4919 53.1921 62.1729 53.4883C61.8538 53.7891 61.4528 53.9395 60.9697 53.9395C60.8193 53.9395 60.6735 53.9281 60.5322 53.9053C60.3955 53.8825 60.293 53.8574 60.2246 53.8301L60.1289 53.8027V52.8867C60.3613 52.9779 60.5938 53.0257 60.8262 53.0303C61.4186 53.0303 61.8402 52.6794 62.0908 51.9775ZM73.4316 48.0059L67.9697 47.9922C68.0062 48.5983 68.2546 49.1224 68.7148 49.5645C69.1797 50.0065 69.7243 50.2275 70.3486 50.2275C70.7679 50.2275 71.1576 50.1341 71.5176 49.9473C71.8776 49.7604 72.1328 49.5736 72.2832 49.3867L72.5225 49.1133L73.1514 49.7422C73.124 49.7786 73.083 49.8311 73.0283 49.8994C72.9782 49.9632 72.8643 50.0749 72.6865 50.2344C72.5133 50.3893 72.3242 50.5283 72.1191 50.6514C71.9186 50.7699 71.6566 50.8815 71.333 50.9863C71.014 51.0866 70.6859 51.1367 70.3486 51.1367C69.4326 51.1367 68.6442 50.7972 67.9834 50.1182C67.3226 49.4346 66.9922 48.6074 66.9922 47.6367C66.9922 46.666 67.318 45.8411 67.9697 45.1621C68.626 44.4785 69.3962 44.1367 70.2803 44.1367C71.1963 44.1367 71.9619 44.4557 72.5771 45.0938C73.1924 45.7272 73.5 46.5293 73.5 47.5L73.4316 48.0059ZM71.7842 45.6475C71.3695 45.251 70.8682 45.0527 70.2803 45.0527C69.6924 45.0527 69.1797 45.2601 68.7422 45.6748C68.3047 46.0895 68.0472 46.5817 67.9697 47.1514H72.5225C72.4495 46.5452 72.2035 46.0439 71.7842 45.6475ZM74.4092 45.1895V44.2803H80.1445V45.1895H77.7656V51H76.7881V45.1895H74.4092ZM85.6885 42.1816V45.1211H88.416C89.2819 45.1211 90.0111 45.4082 90.6035 45.9824C91.2005 46.5566 91.499 47.2493 91.499 48.0605C91.499 48.8717 91.2005 49.5645 90.6035 50.1387C90.0111 50.7129 89.2819 51 88.416 51H84.6357V41.1973H90.7266V42.1816H85.6885ZM85.6885 50.0225H88.416C89.0039 50.0225 89.4893 49.8356 89.8721 49.4619C90.2549 49.0882 90.4463 48.6211 90.4463 48.0605C90.4463 47.5 90.2549 47.0329 89.8721 46.6592C89.4893 46.2855 89.0039 46.0986 88.416 46.0986H85.6885V50.0225ZM94.8623 47.1514L97.4531 46.7275C97.4531 46.2308 97.2959 45.8275 96.9814 45.5176C96.667 45.2077 96.2637 45.0527 95.7715 45.0527C95.416 45.0527 95.0811 45.1348 94.7666 45.2988C94.4567 45.4583 94.2311 45.6224 94.0898 45.791L93.8779 46.0303L93.249 45.4014C93.2764 45.3649 93.3128 45.3193 93.3584 45.2646C93.4085 45.2054 93.5133 45.1051 93.6729 44.9639C93.8369 44.818 94.0078 44.6882 94.1855 44.5742C94.3633 44.4603 94.5957 44.36 94.8828 44.2734C95.1745 44.1823 95.4707 44.1367 95.7715 44.1367C96.5371 44.1367 97.1706 44.3851 97.6719 44.8818C98.1777 45.3786 98.4307 45.9938 98.4307 46.7275V51H97.4531V50.0908C97.4349 50.1182 97.4053 50.1569 97.3643 50.207C97.3278 50.2526 97.2412 50.3369 97.1045 50.46C96.9723 50.5785 96.8288 50.6855 96.6738 50.7812C96.5189 50.8724 96.3138 50.9544 96.0586 51.0273C95.8079 51.1003 95.5482 51.1367 95.2793 51.1367C94.6094 51.1367 94.0443 50.9385 93.584 50.542C93.1283 50.1455 92.9004 49.6921 92.9004 49.1816C92.9004 48.6211 93.069 48.1699 93.4062 47.8281C93.7435 47.4818 94.2288 47.2562 94.8623 47.1514ZM95.2793 50.2275C95.9128 50.2275 96.4323 50.0202 96.8379 49.6055C97.248 49.1908 97.4531 48.653 97.4531 47.9922V47.5684L95.1426 47.9922C94.304 48.1517 93.8825 48.5482 93.8779 49.1816C93.8779 49.4824 94.001 49.7331 94.2471 49.9336C94.4977 50.1296 94.8418 50.2275 95.2793 50.2275ZM105 51V48.2725C104.485 48.6462 103.856 48.833 103.113 48.833C102.348 48.833 101.723 48.5938 101.24 48.1152C100.762 47.6322 100.522 47.0078 100.522 46.2422V44.2803H101.5V46.2422C101.5 46.7253 101.657 47.1263 101.972 47.4453C102.286 47.7598 102.689 47.917 103.182 47.917C103.519 47.917 103.838 47.8669 104.139 47.7666C104.444 47.6618 104.663 47.5547 104.795 47.4453L105 47.2881V44.2803H105.984V51H105ZM109.696 47.1514L112.287 46.7275C112.287 46.2308 112.13 45.8275 111.815 45.5176C111.501 45.2077 111.098 45.0527 110.605 45.0527C110.25 45.0527 109.915 45.1348 109.601 45.2988C109.291 45.4583 109.065 45.6224 108.924 45.791L108.712 46.0303L108.083 45.4014C108.11 45.3649 108.147 45.3193 108.192 45.2646C108.243 45.2054 108.347 45.1051 108.507 44.9639C108.671 44.818 108.842 44.6882 109.02 44.5742C109.197 44.4603 109.43 44.36 109.717 44.2734C110.008 44.1823 110.305 44.1367 110.605 44.1367C111.371 44.1367 112.005 44.3851 112.506 44.8818C113.012 45.3786 113.265 45.9938 113.265 46.7275V51H112.287V50.0908C112.269 50.1182 112.239 50.1569 112.198 50.207C112.162 50.2526 112.075 50.3369 111.938 50.46C111.806 50.5785 111.663 50.6855 111.508 50.7812C111.353 50.8724 111.148 50.9544 110.893 51.0273C110.642 51.1003 110.382 51.1367 110.113 51.1367C109.443 51.1367 108.878 50.9385 108.418 50.542C107.962 50.1455 107.734 49.6921 107.734 49.1816C107.734 48.6211 107.903 48.1699 108.24 47.8281C108.577 47.4818 109.063 47.2562 109.696 47.1514ZM110.113 50.2275C110.747 50.2275 111.266 50.0202 111.672 49.6055C112.082 49.1908 112.287 48.653 112.287 47.9922V47.5684L109.977 47.9922C109.138 48.1517 108.716 48.5482 108.712 49.1816C108.712 49.4824 108.835 49.7331 109.081 49.9336C109.332 50.1296 109.676 50.2275 110.113 50.2275ZM114.659 45.1895V44.2803H120.395V45.1895H118.016V51H117.038V45.1895H114.659ZM123.272 47.1514L125.863 46.7275C125.863 46.2308 125.706 45.8275 125.392 45.5176C125.077 45.2077 124.674 45.0527 124.182 45.0527C123.826 45.0527 123.491 45.1348 123.177 45.2988C122.867 45.4583 122.641 45.6224 122.5 45.791L122.288 46.0303L121.659 45.4014C121.687 45.3649 121.723 45.3193 121.769 45.2646C121.819 45.2054 121.924 45.1051 122.083 44.9639C122.247 44.818 122.418 44.6882 122.596 44.5742C122.773 44.4603 123.006 44.36 123.293 44.2734C123.585 44.1823 123.881 44.1367 124.182 44.1367C124.947 44.1367 125.581 44.3851 126.082 44.8818C126.588 45.3786 126.841 45.9938 126.841 46.7275V51H125.863V50.0908C125.845 50.1182 125.815 50.1569 125.774 50.207C125.738 50.2526 125.651 50.3369 125.515 50.46C125.382 50.5785 125.239 50.6855 125.084 50.7812C124.929 50.8724 124.724 50.9544 124.469 51.0273C124.218 51.1003 123.958 51.1367 123.689 51.1367C123.02 51.1367 122.454 50.9385 121.994 50.542C121.538 50.1455 121.311 49.6921 121.311 49.1816C121.311 48.6211 121.479 48.1699 121.816 47.8281C122.154 47.4818 122.639 47.2562 123.272 47.1514ZM123.689 50.2275C124.323 50.2275 124.842 50.0202 125.248 49.6055C125.658 49.1908 125.863 48.653 125.863 47.9922V47.5684L123.553 47.9922C122.714 48.1517 122.293 48.5482 122.288 49.1816C122.288 49.4824 122.411 49.7331 122.657 49.9336C122.908 50.1296 123.252 50.2275 123.689 50.2275Z" fill="#68707A"/>
<circle cx="360" cy="82" r="7.5" stroke="#68707A"/>
<path d="M3.04199 79.207C2.27181 79.9863 1.88672 80.9502 1.88672 82.0986C1.88672 83.2471 2.27181 84.2109 3.04199 84.9902C3.81217 85.7695 4.75781 86.1592 5.87891 86.1592C7 86.1592 7.94564 85.7695 8.71582 84.9902C9.486 84.2109 9.87109 83.2471 9.87109 82.0986C9.87109 80.9502 9.486 79.9863 8.71582 79.207C7.94564 78.4277 7 78.0381 5.87891 78.0381C4.75781 78.0381 3.81217 78.4277 3.04199 79.207ZM9.44727 78.5303C10.4271 79.5101 10.917 80.6995 10.917 82.0986C10.917 83.4977 10.4271 84.6872 9.44727 85.667C8.46745 86.6468 7.27799 87.1367 5.87891 87.1367C4.47982 87.1367 3.29036 86.6468 2.31055 85.667C1.33073 84.6872 0.84082 83.4977 0.84082 82.0986C0.84082 80.6995 1.33073 79.5101 2.31055 78.5303C3.29036 77.5505 4.47982 77.0605 5.87891 77.0605C7.27799 77.0605 8.46745 77.5505 9.44727 78.5303ZM17.6367 87V84.0605H13.7881V87H12.8105V80.2803H13.7881V83.1514H17.6367V80.2803H18.6211V87H17.6367ZM24.0283 86.1182C23.3675 85.4346 23.0371 84.6074 23.0371 83.6367C23.0371 82.666 23.3675 81.8411 24.0283 81.1621C24.6937 80.4785 25.4821 80.1367 26.3936 80.1367C26.9176 80.1367 27.4053 80.2507 27.8564 80.4785C28.3122 80.7018 28.638 80.9251 28.834 81.1484L29.1279 81.4697L28.4238 82.167C28.4056 82.1396 28.3783 82.1009 28.3418 82.0508C28.3053 82.0007 28.2233 81.9095 28.0957 81.7773C27.9727 81.6452 27.8382 81.5312 27.6924 81.4355C27.5465 81.3353 27.3574 81.2464 27.125 81.1689C26.8926 81.0915 26.6488 81.0527 26.3936 81.0527C25.751 81.0527 25.1927 81.3034 24.7188 81.8047C24.2493 82.3014 24.0146 82.9144 24.0146 83.6436C24.0146 84.3682 24.2493 84.9811 24.7188 85.4824C25.1927 85.9792 25.751 86.2275 26.3936 86.2275C26.7855 86.2275 27.1569 86.1341 27.5078 85.9473C27.8587 85.7604 28.1139 85.5736 28.2734 85.3867L28.499 85.1133L29.1963 85.7422C29.1689 85.7786 29.1257 85.8311 29.0664 85.8994C29.0117 85.9632 28.8932 86.0749 28.7109 86.2344C28.5286 86.3893 28.3372 86.5283 28.1367 86.6514C27.9362 86.7699 27.6764 86.8815 27.3574 86.9863C27.043 87.0866 26.7217 87.1367 26.3936 87.1367C25.4775 87.1367 24.6891 86.7972 24.0283 86.1182ZM29.8936 81.1895V80.2803H35.6289V81.1895H33.25V87H32.2725V81.1895H29.8936ZM38.5068 83.1514L41.0977 82.7275C41.0977 82.2308 40.9404 81.8275 40.626 81.5176C40.3115 81.2077 39.9082 81.0527 39.416 81.0527C39.0605 81.0527 38.7256 81.1348 38.4111 81.2988C38.1012 81.4583 37.8757 81.6224 37.7344 81.791L37.5225 82.0303L36.8936 81.4014C36.9209 81.3649 36.9574 81.3193 37.0029 81.2646C37.0531 81.2054 37.1579 81.1051 37.3174 80.9639C37.4814 80.818 37.6523 80.6882 37.8301 80.5742C38.0078 80.4603 38.2402 80.36 38.5273 80.2734C38.819 80.1823 39.1152 80.1367 39.416 80.1367C40.1816 80.1367 40.8151 80.3851 41.3164 80.8818C41.8223 81.3786 42.0752 81.9938 42.0752 82.7275V87H41.0977V86.0908C41.0794 86.1182 41.0498 86.1569 41.0088 86.207C40.9723 86.2526 40.8857 86.3369 40.749 86.46C40.6169 86.5785 40.4733 86.6855 40.3184 86.7812C40.1634 86.8724 39.9583 86.9544 39.7031 87.0273C39.4525 87.1003 39.1927 87.1367 38.9238 87.1367C38.2539 87.1367 37.6888 86.9385 37.2285 86.542C36.7728 86.1455 36.5449 85.6921 36.5449 85.1816C36.5449 84.6211 36.7135 84.1699 37.0508 83.8281C37.388 83.4818 37.8734 83.2562 38.5068 83.1514ZM38.9238 86.2275C39.5573 86.2275 40.0768 86.0202 40.4824 85.6055C40.8926 85.1908 41.0977 84.653 41.0977 83.9922V83.5684L38.7871 83.9922C37.9486 84.1517 37.527 84.5482 37.5225 85.1816C37.5225 85.4824 37.6455 85.7331 37.8916 85.9336C38.1423 86.1296 38.4863 86.2275 38.9238 86.2275ZM49.1367 87V84.0605H45.2881V87H44.3105V80.2803H45.2881V83.1514H49.1367V80.2803H50.1211V87H49.1367ZM52.3633 87V80.2803H53.3408V86.0908H57.0527V80.2803H58.0303V86.0908H59.083V88.6816H58.0986V87H52.3633ZM62.0908 87.9775L62.4395 87L59.7051 80.2803H60.7578L62.9316 85.7422L65.0986 80.2803H66.1514L63.0684 87.9775C62.7904 88.6885 62.4919 89.1921 62.1729 89.4883C61.8538 89.7891 61.4528 89.9395 60.9697 89.9395C60.8193 89.9395 60.6735 89.9281 60.5322 89.9053C60.3955 89.8825 60.293 89.8574 60.2246 89.8301L60.1289 89.8027V88.8867C60.3613 88.9779 60.5938 89.0257 60.8262 89.0303C61.4186 89.0303 61.8402 88.6794 62.0908 87.9775ZM73.4316 84.0059L67.9697 83.9922C68.0062 84.5983 68.2546 85.1224 68.7148 85.5645C69.1797 86.0065 69.7243 86.2275 70.3486 86.2275C70.7679 86.2275 71.1576 86.1341 71.5176 85.9473C71.8776 85.7604 72.1328 85.5736 72.2832 85.3867L72.5225 85.1133L73.1514 85.7422C73.124 85.7786 73.083 85.8311 73.0283 85.8994C72.9782 85.9632 72.8643 86.0749 72.6865 86.2344C72.5133 86.3893 72.3242 86.5283 72.1191 86.6514C71.9186 86.7699 71.6566 86.8815 71.333 86.9863C71.014 87.0866 70.6859 87.1367 70.3486 87.1367C69.4326 87.1367 68.6442 86.7972 67.9834 86.1182C67.3226 85.4346 66.9922 84.6074 66.9922 83.6367C66.9922 82.666 67.318 81.8411 67.9697 81.1621C68.626 80.4785 69.3962 80.1367 70.2803 80.1367C71.1963 80.1367 71.9619 80.4557 72.5771 81.0938C73.1924 81.7272 73.5 82.5293 73.5 83.5L73.4316 84.0059ZM71.7842 81.6475C71.3695 81.251 70.8682 81.0527 70.2803 81.0527C69.6924 81.0527 69.1797 81.2601 68.7422 81.6748C68.3047 82.0895 68.0472 82.5817 67.9697 83.1514H72.5225C72.4495 82.5452 72.2035 82.0439 71.7842 81.6475ZM74.4092 81.1895V80.2803H80.1445V81.1895H77.7656V87H76.7881V81.1895H74.4092ZM85.6885 78.1816V81.1211H88.416C89.2819 81.1211 90.0111 81.4082 90.6035 81.9824C91.2005 82.5566 91.499 83.2493 91.499 84.0605C91.499 84.8717 91.2005 85.5645 90.6035 86.1387C90.0111 86.7129 89.2819 87 88.416 87H84.6357V77.1973H90.7266V78.1816H85.6885ZM85.6885 86.0225H88.416C89.0039 86.0225 89.4893 85.8356 89.8721 85.4619C90.2549 85.0882 90.4463 84.6211 90.4463 84.0605C90.4463 83.5 90.2549 83.0329 89.8721 82.6592C89.4893 82.2855 89.0039 82.0986 88.416 82.0986H85.6885V86.0225ZM94.8623 83.1514L97.4531 82.7275C97.4531 82.2308 97.2959 81.8275 96.9814 81.5176C96.667 81.2077 96.2637 81.0527 95.7715 81.0527C95.416 81.0527 95.0811 81.1348 94.7666 81.2988C94.4567 81.4583 94.2311 81.6224 94.0898 81.791L93.8779 82.0303L93.249 81.4014C93.2764 81.3649 93.3128 81.3193 93.3584 81.2646C93.4085 81.2054 93.5133 81.1051 93.6729 80.9639C93.8369 80.818 94.0078 80.6882 94.1855 80.5742C94.3633 80.4603 94.5957 80.36 94.8828 80.2734C95.1745 80.1823 95.4707 80.1367 95.7715 80.1367C96.5371 80.1367 97.1706 80.3851 97.6719 80.8818C98.1777 81.3786 98.4307 81.9938 98.4307 82.7275V87H97.4531V86.0908C97.4349 86.1182 97.4053 86.1569 97.3643 86.207C97.3278 86.2526 97.2412 86.3369 97.1045 86.46C96.9723 86.5785 96.8288 86.6855 96.6738 86.7812C96.5189 86.8724 96.3138 86.9544 96.0586 87.0273C95.8079 87.1003 95.5482 87.1367 95.2793 87.1367C94.6094 87.1367 94.0443 86.9385 93.584 86.542C93.1283 86.1455 92.9004 85.6921 92.9004 85.1816C92.9004 84.6211 93.069 84.1699 93.4062 83.8281C93.7435 83.4818 94.2288 83.2562 94.8623 83.1514ZM95.2793 86.2275C95.9128 86.2275 96.4323 86.0202 96.8379 85.6055C97.248 85.1908 97.4531 84.653 97.4531 83.9922V83.5684L95.1426 83.9922C94.304 84.1517 93.8825 84.5482 93.8779 85.1816C93.8779 85.4824 94.001 85.7331 94.2471 85.9336C94.4977 86.1296 94.8418 86.2275 95.2793 86.2275ZM105 87V84.2725C104.485 84.6462 103.856 84.833 103.113 84.833C102.348 84.833 101.723 84.5938 101.24 84.1152C100.762 83.6322 100.522 83.0078 100.522 82.2422V80.2803H101.5V82.2422C101.5 82.7253 101.657 83.1263 101.972 83.4453C102.286 83.7598 102.689 83.917 103.182 83.917C103.519 83.917 103.838 83.8669 104.139 83.7666C104.444 83.6618 104.663 83.5547 104.795 83.4453L105 83.2881V80.2803H105.984V87H105ZM109.696 83.1514L112.287 82.7275C112.287 82.2308 112.13 81.8275 111.815 81.5176C111.501 81.2077 111.098 81.0527 110.605 81.0527C110.25 81.0527 109.915 81.1348 109.601 81.2988C109.291 81.4583 109.065 81.6224 108.924 81.791L108.712 82.0303L108.083 81.4014C108.11 81.3649 108.147 81.3193 108.192 81.2646C108.243 81.2054 108.347 81.1051 108.507 80.9639C108.671 80.818 108.842 80.6882 109.02 80.5742C109.197 80.4603 109.43 80.36 109.717 80.2734C110.008 80.1823 110.305 80.1367 110.605 80.1367C111.371 80.1367 112.005 80.3851 112.506 80.8818C113.012 81.3786 113.265 81.9938 113.265 82.7275V87H112.287V86.0908C112.269 86.1182 112.239 86.1569 112.198 86.207C112.162 86.2526 112.075 86.3369 111.938 86.46C111.806 86.5785 111.663 86.6855 111.508 86.7812C111.353 86.8724 111.148 86.9544 110.893 87.0273C110.642 87.1003 110.382 87.1367 110.113 87.1367C109.443 87.1367 108.878 86.9385 108.418 86.542C107.962 86.1455 107.734 85.6921 107.734 85.1816C107.734 84.6211 107.903 84.1699 108.24 83.8281C108.577 83.4818 109.063 83.2562 109.696 83.1514ZM110.113 86.2275C110.747 86.2275 111.266 86.0202 111.672 85.6055C112.082 85.1908 112.287 84.653 112.287 83.9922V83.5684L109.977 83.9922C109.138 84.1517 108.716 84.5482 108.712 85.1816C108.712 85.4824 108.835 85.7331 109.081 85.9336C109.332 86.1296 109.676 86.2275 110.113 86.2275ZM114.659 81.1895V80.2803H120.395V81.1895H118.016V87H117.038V81.1895H114.659ZM123.272 83.1514L125.863 82.7275C125.863 82.2308 125.706 81.8275 125.392 81.5176C125.077 81.2077 124.674 81.0527 124.182 81.0527C123.826 81.0527 123.491 81.1348 123.177 81.2988C122.867 81.4583 122.641 81.6224 122.5 81.791L122.288 82.0303L121.659 81.4014C121.687 81.3649 121.723 81.3193 121.769 81.2646C121.819 81.2054 121.924 81.1051 122.083 80.9639C122.247 80.818 122.418 80.6882 122.596 80.5742C122.773 80.4603 123.006 80.36 123.293 80.2734C123.585 80.1823 123.881 80.1367 124.182 80.1367C124.947 80.1367 125.581 80.3851 126.082 80.8818C126.588 81.3786 126.841 81.9938 126.841 82.7275V87H125.863V86.0908C125.845 86.1182 125.815 86.1569 125.774 86.207C125.738 86.2526 125.651 86.3369 125.515 86.46C125.382 86.5785 125.239 86.6855 125.084 86.7812C124.929 86.8724 124.724 86.9544 124.469 87.0273C124.218 87.1003 123.958 87.1367 123.689 87.1367C123.02 87.1367 122.454 86.9385 121.994 86.542C121.538 86.1455 121.311 85.6921 121.311 85.1816C121.311 84.6211 121.479 84.1699 121.816 83.8281C122.154 83.4818 122.639 83.2562 123.272 83.1514ZM123.689 86.2275C124.323 86.2275 124.842 86.0202 125.248 85.6055C125.658 85.1908 125.863 84.653 125.863 83.9922V83.5684L123.553 83.9922C122.714 84.1517 122.293 84.5482 122.288 85.1816C122.288 85.4824 122.411 85.7331 122.657 85.9336C122.908 86.1296 123.252 86.2275 123.689 86.2275Z" fill="#68707A"/>
</svg>
