<svg width="192" height="28" viewBox="0 0 192 28" fill="none" xmlns="http://www.w3.org/2000/svg">
<rect width="32" height="28" rx="14" fill="#0D54A5"/>
<path d="M15.9561 8.39648H17.4854V21H15.5078V11.4639H13.2578V10.1104C14.0137 10.0283 14.5879 9.84961 14.9805 9.57422C15.3789 9.29297 15.7041 8.90039 15.9561 8.39648Z" fill="white"/>
<path d="M59.999 21H51.6318C51.6318 20.2207 51.749 19.5146 51.9834 18.8818C52.2178 18.2432 52.5225 17.7129 52.8975 17.291C53.2783 16.8691 53.6943 16.4824 54.1455 16.1309C54.6025 15.7793 55.0566 15.46 55.5078 15.1729C55.959 14.8799 56.3721 14.5928 56.7471 14.3115C57.1279 14.0303 57.4355 13.7021 57.6699 13.3271C57.9043 12.9463 58.0215 12.5332 58.0215 12.0879C58.0215 11.4492 57.8223 10.9453 57.4238 10.5762C57.0312 10.207 56.4805 10.0225 55.7715 10.0225C55.4258 10.0225 55.1006 10.0869 54.7959 10.2158C54.4971 10.3389 54.2627 10.4883 54.0928 10.6641C53.9287 10.834 53.7822 11.0068 53.6533 11.1826C53.5303 11.3584 53.4453 11.5107 53.3984 11.6396L53.3369 11.8242L51.7197 11.1035C51.7432 11.0215 51.7754 10.916 51.8164 10.7871C51.8633 10.6582 51.9863 10.4297 52.1855 10.1016C52.3906 9.77344 52.6279 9.4834 52.8975 9.23145C53.167 8.97949 53.5566 8.74805 54.0664 8.53711C54.5762 8.32617 55.1445 8.2207 55.7715 8.2207C57.0078 8.2207 58.0215 8.59277 58.8125 9.33691C59.6035 10.0811 59.999 10.998 59.999 12.0879C59.999 12.6621 59.8818 13.1953 59.6475 13.6875C59.4131 14.1797 59.1143 14.5928 58.751 14.9268C58.3936 15.2549 57.9805 15.5947 57.5117 15.9463C57.0488 16.292 56.5977 16.6084 56.1582 16.8955C55.7188 17.1826 55.2852 17.5283 54.8574 17.9326C54.4355 18.3311 54.1104 18.7529 53.8818 19.1982H59.999V21Z" fill="#0D54A5"/>
<path d="M97.9775 14.3379C98.0361 14.3613 98.1152 14.3965 98.2148 14.4434C98.3203 14.4844 98.502 14.5898 98.7598 14.7598C99.0176 14.9238 99.2461 15.1143 99.4453 15.3311C99.6445 15.5479 99.8232 15.8496 99.9814 16.2363C100.146 16.6172 100.228 17.0361 100.228 17.4932C100.228 18.5244 99.8145 19.3975 98.9883 20.1123C98.168 20.8213 97.0811 21.1758 95.7275 21.1758C95.1533 21.1758 94.6084 21.1084 94.0928 20.9736C93.5771 20.833 93.1494 20.6689 92.8096 20.4814C92.4756 20.2881 92.1855 20.0947 91.9395 19.9014C91.6934 19.708 91.5146 19.5469 91.4033 19.418L91.2275 19.1982L92.4844 17.9414C92.5078 17.9766 92.5488 18.0293 92.6074 18.0996C92.6719 18.1641 92.8066 18.2812 93.0117 18.4512C93.2168 18.6152 93.4307 18.7617 93.6533 18.8906C93.8818 19.0137 94.1807 19.1279 94.5498 19.2334C94.9248 19.333 95.3174 19.3828 95.7275 19.3828C96.5068 19.3828 97.1221 19.1953 97.5732 18.8203C98.0244 18.4395 98.25 17.9678 98.25 17.4053C98.25 16.8369 98.0244 16.3652 97.5732 15.9902C97.1221 15.6094 96.5068 15.4189 95.7275 15.4189H94.4707V13.6172H95.7275C96.3486 13.6172 96.832 13.4561 97.1777 13.1338C97.5293 12.8115 97.7051 12.375 97.7051 11.8242C97.7051 11.2676 97.5293 10.8281 97.1777 10.5059C96.832 10.1836 96.3486 10.0225 95.7275 10.0225C95.2002 10.0225 94.7021 10.1367 94.2334 10.3652C93.7646 10.5938 93.4336 10.8135 93.2402 11.0244L92.9414 11.3672L91.6758 10.1104C91.7109 10.0635 91.7637 9.99902 91.834 9.91699C91.9102 9.8291 92.0742 9.67383 92.3262 9.45117C92.5781 9.22852 92.8477 9.03809 93.1348 8.87988C93.4219 8.71582 93.7998 8.56641 94.2686 8.43164C94.7373 8.29102 95.2236 8.2207 95.7275 8.2207C96.9639 8.2207 97.9336 8.54004 98.6367 9.17871C99.3398 9.81152 99.6914 10.6318 99.6914 11.6396C99.6914 11.9854 99.6299 12.3193 99.5068 12.6416C99.3896 12.958 99.2461 13.2158 99.0762 13.415C98.9062 13.6143 98.7393 13.7871 98.5752 13.9336C98.417 14.0742 98.2764 14.1738 98.1533 14.2324L97.9775 14.3379Z" fill="#0D54A5"/>
<path d="M130.898 21.1214C130.548 21.1214 130.248 20.9979 129.996 20.7507C129.745 20.4993 129.619 20.1967 129.619 19.843C129.619 19.4936 129.745 19.1953 129.996 18.9482C130.248 18.6967 130.548 18.571 130.898 18.571C131.247 18.571 131.547 18.6967 131.799 18.9482C132.05 19.1953 132.176 19.4936 132.176 19.843C132.176 20.0774 132.116 20.2926 131.997 20.4886C131.882 20.6804 131.729 20.8338 131.537 20.9489C131.345 21.0639 131.132 21.1214 130.898 21.1214ZM135.995 21.1214C135.646 21.1214 135.345 20.9979 135.094 20.7507C134.843 20.4993 134.717 20.1967 134.717 19.843C134.717 19.4936 134.843 19.1953 135.094 18.9482C135.345 18.6967 135.646 18.571 135.995 18.571C136.345 18.571 136.645 18.6967 136.896 18.9482C137.148 19.1953 137.274 19.4936 137.274 19.843C137.274 20.0774 137.214 20.2926 137.095 20.4886C136.98 20.6804 136.826 20.8338 136.634 20.9489C136.443 21.0639 136.23 21.1214 135.995 21.1214ZM141.093 21.1214C140.743 21.1214 140.443 20.9979 140.192 20.7507C139.94 20.4993 139.814 20.1967 139.814 19.843C139.814 19.4936 139.94 19.1953 140.192 18.9482C140.443 18.6967 140.743 18.571 141.093 18.571C141.442 18.571 141.743 18.6967 141.994 18.9482C142.246 19.1953 142.371 19.4936 142.371 19.843C142.371 20.0774 142.312 20.2926 142.192 20.4886C142.077 20.6804 141.924 20.8338 141.732 20.9489C141.54 21.0639 141.327 21.1214 141.093 21.1214Z" fill="#0D54A5"/>
<path d="M165.286 18.4432V16.8452L170.943 7.90909H172.202V10.2614H171.403L167.357 16.6662V16.7685H175.111V18.4432H165.286ZM171.493 21V17.9574L171.506 17.2287V7.90909H173.378V21H171.493ZM181.896 21.2173C180.886 21.2131 180.023 20.9467 179.307 20.4183C178.591 19.8899 178.044 19.1207 177.664 18.1108C177.285 17.1009 177.095 15.8842 177.095 14.4609C177.095 13.0419 177.285 11.8295 177.664 10.8239C178.048 9.81818 178.598 9.05114 179.313 8.52273C180.034 7.99432 180.894 7.73011 181.896 7.73011C182.897 7.73011 183.756 7.99645 184.472 8.52912C185.188 9.05753 185.735 9.82457 186.115 10.8303C186.498 11.8317 186.69 13.0419 186.69 14.4609C186.69 15.8885 186.5 17.1072 186.121 18.1172C185.742 19.1229 185.194 19.892 184.478 20.4247C183.762 20.9531 182.902 21.2173 181.896 21.2173ZM181.896 19.5107C182.782 19.5107 183.475 19.0781 183.973 18.2131C184.476 17.348 184.728 16.0973 184.728 14.4609C184.728 13.3743 184.612 12.456 184.382 11.706C184.157 10.9517 183.831 10.3807 183.404 9.9929C182.983 9.60085 182.48 9.40483 181.896 9.40483C181.014 9.40483 180.321 9.83949 179.818 10.7088C179.316 11.5781 179.062 12.8288 179.058 14.4609C179.058 15.5518 179.171 16.4744 179.397 17.2287C179.627 17.9787 179.953 18.5476 180.375 18.9354C180.796 19.3189 181.304 19.5107 181.896 19.5107Z" fill="#0D54A5"/>
</svg>
