<svg width="123" height="40" viewBox="0 0 123 40" fill="none" xmlns="http://www.w3.org/2000/svg">
<g clip-path="url(#clip0_554_4308)">
<path d="M118.727 0.105225H4.3315C2.13398 0.105225 0.352539 1.88666 0.352539 4.08418V35.9158C0.352539 38.1134 2.13398 39.8948 4.3315 39.8948H118.727C120.924 39.8948 122.705 38.1134 122.705 35.9158V4.08418C122.705 1.88666 120.924 0.105225 118.727 0.105225Z" fill="black"/>
<path d="M62.0731 21.6282C59.8979 21.6282 58.1759 23.2559 58.1759 25.5167C58.1759 27.687 59.8979 29.4052 62.0731 29.4052C64.2482 29.4052 65.9703 27.7774 65.9703 25.5167C65.9703 23.1655 64.2482 21.6282 62.0731 21.6282ZM62.0731 27.7774C60.8949 27.7774 59.8979 26.7827 59.8979 25.4263C59.8979 24.0697 60.8949 23.075 62.0731 23.075C63.2513 23.075 64.2482 23.9793 64.2482 25.4263C64.2482 26.7827 63.2513 27.7774 62.0731 27.7774ZM53.6443 21.6282C51.4692 21.6282 49.7472 23.2559 49.7472 25.5167C49.7472 27.687 51.4692 29.4052 53.6443 29.4052C55.8195 29.4052 57.5415 27.7774 57.5415 25.5167C57.5415 23.1655 55.8195 21.6282 53.6443 21.6282ZM53.6443 27.7774C52.4661 27.7774 51.4692 26.7827 51.4692 25.4263C51.4692 24.0697 52.4661 23.075 53.6443 23.075C54.8226 23.075 55.8195 23.9793 55.8195 25.4263C55.8195 26.7827 54.8226 27.7774 53.6443 27.7774ZM43.5842 22.8037V24.4315H47.4814C47.3908 25.3358 47.0282 26.0592 46.5751 26.5114C46.0313 27.054 45.125 27.687 43.5842 27.687C41.1371 27.687 39.3245 25.788 39.3245 23.3464C39.3245 20.9047 41.2278 19.0056 43.5842 19.0056C44.8531 19.0056 45.85 19.5483 46.5751 20.1813L47.7533 19.0056C46.7563 18.1013 45.4874 17.3779 43.6748 17.3779C40.4121 17.3779 37.6025 20.0908 37.6025 23.3464C37.6025 26.6019 40.4121 29.3148 43.6748 29.3148C45.4874 29.3148 46.7563 28.7722 47.8439 27.5966C48.9315 26.5114 49.294 24.9741 49.294 23.7985C49.294 23.4368 49.294 23.075 49.2034 22.8037H43.5842ZM84.7311 24.0697C84.3685 23.1655 83.4622 21.6282 81.4684 21.6282C79.4744 21.6282 77.843 23.1655 77.843 25.5167C77.843 27.687 79.4744 29.4052 81.6496 29.4052C83.3716 29.4052 84.4592 28.3201 84.8217 27.687L83.5528 26.7827C83.0997 27.4157 82.5559 27.8679 81.6496 27.8679C80.7433 27.8679 80.1995 27.5062 79.7463 26.6923L84.9124 24.522L84.7311 24.0697ZM79.4744 25.3358C79.4744 23.8889 80.6527 23.075 81.4684 23.075C82.1027 23.075 82.7372 23.4368 82.9184 23.8889L79.4744 25.3358ZM75.2147 29.0434H76.9367V17.7396H75.2147V29.0434ZM72.4958 22.442C72.0426 21.9898 71.3175 21.5377 70.4112 21.5377C68.508 21.5377 66.6953 23.2559 66.6953 25.4263C66.6953 27.5966 68.4174 29.2244 70.4112 29.2244C71.3175 29.2244 72.0426 28.7722 72.4051 28.3201H72.4958V28.8626C72.4958 30.3095 71.6801 31.1234 70.4112 31.1234C69.4143 31.1234 68.6892 30.4 68.508 29.7669L67.0579 30.4C67.511 31.3947 68.5986 32.6607 70.5019 32.6607C72.4958 32.6607 74.1272 31.4851 74.1272 28.6818V21.809H72.4958V22.442ZM70.5019 27.7774C69.3237 27.7774 68.3267 26.7827 68.3267 25.4263C68.3267 24.0697 69.3237 23.075 70.5019 23.075C71.6801 23.075 72.5864 24.0697 72.5864 25.4263C72.5864 26.7827 71.6801 27.7774 70.5019 27.7774ZM92.616 17.7396H88.5376V29.0434H90.2596V24.7932H92.616C94.5193 24.7932 96.332 23.4368 96.332 21.2665C96.332 19.096 94.5193 17.7396 92.616 17.7396ZM92.7066 23.1655H90.2596V19.277H92.7066C93.9755 19.277 94.7006 20.3621 94.7006 21.176C94.61 22.1708 93.8849 23.1655 92.7066 23.1655ZM103.129 21.5377C101.861 21.5377 100.592 22.0803 100.138 23.2559L101.679 23.8889C102.042 23.2559 102.585 23.075 103.22 23.075C104.126 23.075 104.942 23.6176 105.032 24.522V24.6124C104.761 24.4315 104.035 24.1603 103.31 24.1603C101.679 24.1603 100.048 25.0645 100.048 26.6923C100.048 28.2296 101.407 29.2244 102.858 29.2244C104.035 29.2244 104.58 28.6818 105.032 28.1392H105.124V29.0434H106.755V24.7028C106.573 22.7133 105.032 21.5377 103.129 21.5377ZM102.948 27.7774C102.404 27.7774 101.588 27.5062 101.588 26.7827C101.588 25.8784 102.585 25.6071 103.401 25.6071C104.126 25.6071 104.489 25.788 104.942 25.9688C104.761 27.054 103.854 27.7774 102.948 27.7774ZM112.465 21.809L110.561 26.6923H110.47L108.477 21.809H106.664L109.655 28.6818L107.933 32.4799H109.655L114.277 21.809H112.465ZM97.2383 29.0434H98.9603V17.7396H97.2383V29.0434Z" fill="white"/>
<path d="M9.77855 8.69629C9.50665 8.96758 9.41602 9.41973 9.41602 9.96232V29.9476C9.41602 30.4901 9.59729 30.9423 9.86918 31.2136L9.95981 31.304L21.1981 20.0906V19.9097L9.77855 8.69629Z" fill="url(#paint0_linear_554_4308)"/>
<path d="M24.8233 23.8887L21.1074 20.1811V19.9097L24.8233 16.2021L24.9139 16.2926L29.3549 18.8246C30.6237 19.5481 30.6237 20.7236 29.3549 21.4471L24.8233 23.8887Z" fill="url(#paint1_linear_554_4308)"/>
<path d="M24.9129 23.7981L21.1063 20L9.77734 31.3038C10.2305 31.756 10.865 31.756 11.6806 31.3942L24.9129 23.7981Z" fill="url(#paint2_linear_554_4308)"/>
<path d="M24.9129 16.2019L11.6806 8.6962C10.865 8.24404 10.2305 8.33447 9.77734 8.78663L21.1063 20L24.9129 16.2019Z" fill="url(#paint3_linear_554_4308)"/>
<path opacity="0.2" d="M24.8222 23.708L11.6806 31.1233C10.9556 31.5755 10.3211 31.4851 9.86797 31.1233L9.77734 31.2138L9.86797 31.3042C10.3211 31.6659 10.9556 31.7563 11.6806 31.3042L24.8222 23.708Z" fill="white"/>
<path opacity="0.12" d="M9.77855 31.1229C9.50665 30.8515 9.41602 30.3994 9.41602 29.8568V29.9472C9.41602 30.4898 9.59729 30.9419 9.86918 31.2133V31.1229H9.77855ZM29.3547 21.1756L24.8231 23.7077L24.9137 23.7981L29.3547 21.266C29.989 20.9043 30.261 20.4521 30.261 20C30.261 20.4521 29.8984 20.8139 29.3547 21.1756Z" fill="white"/>
<path opacity="0.25" d="M11.6819 8.78643L29.355 18.8243C29.8988 19.186 30.2613 19.5477 30.2613 19.9999C30.2613 19.5477 29.9894 19.0956 29.355 18.7338L11.6819 8.696C10.413 7.97256 9.41602 8.51514 9.41602 9.96204V10.0525C9.41602 8.696 10.413 8.06299 11.6819 8.78643Z" fill="white"/>
<path d="M38.5084 14.8459H37.874V13.0372H38.4177C38.871 12.6755 39.1428 11.9521 39.1428 10.9573V8.2444H42.7681V13.0372H43.4025V14.8459H42.7681V13.6703H38.5991V14.8459H38.5084ZM39.7773 10.9573C39.7773 11.7712 39.596 12.4947 39.2334 13.0372H41.9525V8.87741H39.6866V10.9573H39.7773ZM48.7496 12.9466C48.2058 13.4892 47.5714 13.7605 46.7558 13.7605C45.9401 13.7605 45.3056 13.4892 44.7618 12.9466C44.2181 12.4041 43.9461 11.771 43.9461 10.9571C43.9461 10.1433 44.2181 9.51028 44.7618 8.9677C45.3056 8.4251 45.9401 8.15381 46.7558 8.15381C47.5714 8.15381 48.2058 8.4251 48.7496 8.9677C49.2934 9.51028 49.5653 10.1433 49.5653 10.9571C49.5653 11.771 49.2934 12.4041 48.7496 12.9466ZM45.3056 12.4945C45.6681 12.8562 46.2119 13.1275 46.7558 13.1275C47.2995 13.1275 47.8433 12.9466 48.2058 12.4945C48.5684 12.1328 48.8402 11.5902 48.8402 10.9571C48.8402 10.3242 48.659 9.78157 48.2058 9.41984C47.8433 9.05813 47.2995 8.78683 46.7558 8.78683C46.2119 8.78683 45.6681 8.96769 45.3056 9.41984C44.943 9.78157 44.6712 10.3242 44.6712 10.9571C44.6712 11.5902 44.8524 12.1328 45.3056 12.4945ZM53.1001 13.7605C52.2844 13.7605 51.65 13.4892 51.1061 12.9466C50.5624 12.4041 50.2905 11.771 50.2905 10.9571C50.2905 10.1433 50.5624 9.51028 51.1061 8.9677C51.65 8.4251 52.2844 8.15381 53.1001 8.15381C53.9158 8.15381 54.5502 8.4251 55.094 9.05813L54.6409 9.51028C54.2783 9.05812 53.7345 8.78683 53.1001 8.78683C52.4657 8.78683 52.0126 8.96769 51.5593 9.41984C51.1061 9.78157 50.9249 10.3242 50.9249 10.9571C50.9249 11.5902 51.1061 12.1328 51.5593 12.4945C51.9218 12.8562 52.4657 13.1275 53.1001 13.1275C53.7345 13.1275 54.2783 12.8562 54.7315 12.3136L55.1846 12.7658C54.9127 13.0371 54.6409 13.3084 54.2783 13.4892C53.9158 13.6701 53.5533 13.7605 53.1001 13.7605ZM58.0845 13.6705H57.3595V8.87766H55.8187V8.24464H59.5347V8.87766H57.9939V13.6705H58.0845ZM64.3385 8.24464L62.2539 12.8566C61.982 13.4896 61.5288 13.8513 60.9851 13.8513C60.8038 13.8513 60.6225 13.8513 60.4413 13.7609L60.6225 13.1279C60.7131 13.2184 60.8945 13.2184 60.9851 13.2184C61.1663 13.2184 61.257 13.2184 61.3476 13.1279C61.4382 13.0375 61.5288 12.947 61.6194 12.7662L61.8008 12.314L59.9881 8.33507H60.8038L62.1633 11.4097L63.5228 8.24464H64.3385ZM65.1542 13.6705V8.24464H69.0513V13.6705H68.3263V8.87766H65.7886V13.6705H65.1542ZM70.3203 13.6705V8.24464H71.0454V10.5958H73.7643V8.24464H74.4894V13.6705H73.7643V11.2289H71.0454V13.6705H70.3203ZM80.1988 12.9466C79.655 13.4892 79.0205 13.7605 78.2048 13.7605C77.3891 13.7605 76.7548 13.4892 76.211 12.9466C75.6672 12.4041 75.3953 11.771 75.3953 10.9571C75.3953 10.1433 75.6672 9.51028 76.211 8.9677C76.7548 8.4251 77.3891 8.15381 78.2048 8.15381C79.0205 8.15381 79.655 8.4251 80.1988 8.9677C80.7425 9.51028 81.0145 10.1433 81.0145 10.9571C80.9239 11.771 80.6519 12.4041 80.1988 12.9466ZM76.6641 12.4945C77.0267 12.8562 77.5705 13.1275 78.1142 13.1275C78.658 13.1275 79.2019 12.9466 79.5643 12.4945C79.9269 12.1328 80.1988 11.5902 80.1988 10.9571C80.1988 10.3242 80.0175 9.78157 79.5643 9.41984C79.2019 9.05813 78.658 8.78683 78.1142 8.78683C77.5705 8.78683 77.0267 8.96769 76.6641 9.41984C76.3016 9.78157 76.0297 10.3242 76.0297 10.9571C76.0297 11.5902 76.3016 12.1328 76.6641 12.4945ZM83.8241 13.6705V8.24464H85.818C86.2712 8.24464 86.6337 8.4255 86.9056 8.6968C87.1775 8.96809 87.3587 9.32981 87.3587 9.69154C87.3587 9.96283 87.2681 10.1437 87.1775 10.415C87.0869 10.5958 86.9056 10.7767 86.6337 10.8671C86.9056 10.9575 87.0869 11.1385 87.2681 11.3193C87.4493 11.5002 87.54 11.7714 87.54 12.1332C87.54 12.5853 87.3587 12.947 87.0869 13.2184C86.7243 13.4896 86.3618 13.6705 85.9086 13.6705H83.8241ZM84.5492 10.5958H85.818C86.0899 10.5958 86.2712 10.5054 86.4524 10.3246C86.6337 10.1437 86.7243 9.96283 86.7243 9.78197C86.7243 9.6011 86.543 9.32981 86.4524 9.14895C86.2712 8.96809 86.0899 8.87766 85.818 8.87766H84.5492V10.5958ZM84.5492 13.0375H85.9993C86.2712 13.0375 86.4524 12.947 86.6337 12.7662C86.815 12.5853 86.9056 12.4045 86.9056 12.1332C86.9056 11.9523 86.815 11.681 86.6337 11.5002C86.4524 11.3193 86.2712 11.2289 85.9993 11.2289H84.6398V13.0375H84.5492Z" fill="white" stroke="white" stroke-width="0.169106" stroke-miterlimit="10"/>
</g>
<defs>
<linearGradient id="paint0_linear_554_4308" x1="20.1102" y1="9.79032" x2="4.93378" y2="25.0005" gradientUnits="userSpaceOnUse">
<stop stop-color="#00A0FF"/>
<stop offset="0.00657445" stop-color="#00A1FF"/>
<stop offset="0.2601" stop-color="#00BEFF"/>
<stop offset="0.5122" stop-color="#00D2FF"/>
<stop offset="0.7604" stop-color="#00DFFF"/>
<stop offset="1" stop-color="#00E3FF"/>
</linearGradient>
<linearGradient id="paint1_linear_554_4308" x1="31.0173" y1="20.0016" x2="9.08725" y2="20.0016" gradientUnits="userSpaceOnUse">
<stop stop-color="#FFE000"/>
<stop offset="0.4087" stop-color="#FFBD00"/>
<stop offset="0.7754" stop-color="#FFA500"/>
<stop offset="1" stop-color="#FF9C00"/>
</linearGradient>
<linearGradient id="paint2_linear_554_4308" x1="22.8528" y1="22.0765" x2="2.27224" y2="42.7026" gradientUnits="userSpaceOnUse">
<stop stop-color="#FF3A44"/>
<stop offset="1" stop-color="#C31162"/>
</linearGradient>
<linearGradient id="paint3_linear_554_4308" x1="6.96522" y1="2.07331" x2="16.1554" y2="11.2837" gradientUnits="userSpaceOnUse">
<stop stop-color="#32A071"/>
<stop offset="0.0685" stop-color="#2DA771"/>
<stop offset="0.4762" stop-color="#15CF74"/>
<stop offset="0.8009" stop-color="#06E775"/>
<stop offset="1" stop-color="#00F076"/>
</linearGradient>
<clipPath id="clip0_554_4308">
<rect width="122.353" height="40" fill="white" transform="translate(0.352539)"/>
</clipPath>
</defs>
</svg>
