<svg width="24" height="24" viewBox="0 0 24 24" fill="none" xmlns="http://www.w3.org/2000/svg">
<path d="M12 24C5.37258 24 -8.1423e-07 18.6274 -5.24537e-07 12C-2.34843e-07 5.37258 5.37258 -8.1423e-07 12 -5.24537e-07C18.6274 -2.34843e-07 24 5.37258 24 12C24 18.6274 18.6274 24 12 24Z" fill="#0052B5"/>
<path d="M12 0.5C16.6762 0.5 20.7016 3.29127 22.499 7.3L1.50103 7.3C3.29836 3.29127 7.32378 0.499999 12 0.5Z" fill="white" stroke="#E1E5E8"/>
<path d="M0.755525 16.2C2.45801 20.756 6.85016 24 12 24C17.1498 24 21.542 20.756 23.2445 16.2L0.755525 16.2Z" fill="#D90026"/>
</svg>
