<svg width="24" height="24" viewBox="0 0 24 24" fill="none" xmlns="http://www.w3.org/2000/svg">
<circle cx="12" cy="12" r="12" fill="#F2F0F2"/>
<mask id="mask0_82_5880" style="mask-type:alpha" maskUnits="userSpaceOnUse" x="0" y="0" width="24" height="24">
<circle cx="12" cy="12" r="12" fill="#FCFCFC"/>
</mask>
<g mask="url(#mask0_82_5880)">
<rect x="3.9" y="21.3" width="16.5" height="3" fill="#D90026"/>
<rect x="3.9" y="21.3" width="16.5" height="3" fill="#D90026"/>
<rect x="0.300007" y="15.3" width="23.7" height="3" fill="#D90026"/>
<rect x="0.300007" y="15.3" width="23.7" height="3" fill="#D90026"/>
<rect x="0.300007" y="9" width="23.7" height="3" fill="#D90026"/>
<rect x="0.300007" y="9" width="23.7" height="3" fill="#D90026"/>
<rect x="0.300007" y="3" width="23.7" height="3" fill="#D90026"/>
<rect x="0.300007" y="3" width="23.7" height="3" fill="#D90026"/>
<rect width="12.3" height="12" fill="#0052B5"/>
<path d="M9.89999 10.05L8.99999 10.5L9.29999 9.60001L8.69999 9.00001H9.59999L9.89999 8.10001L10.35 9.00001H11.1L10.5 9.60001L10.8 10.5L9.89999 10.05Z" fill="#EFEFEF"/>
<path d="M5.7 10.05L4.8 10.5L5.1 9.60001L4.5 9.00001H5.4L5.7 8.10001L6.15 9.00001H6.9L6.3 9.60001L6.6 10.5L5.7 10.05Z" fill="#EFEFEF"/>
<path d="M1.50001 10.05L0.600007 10.5L0.900007 9.60001L0.300007 9.00001H1.20001L1.50001 8.10001L1.95001 9.00001H2.70001L2.10001 9.60001L2.40001 10.5L1.50001 10.05Z" fill="#EFEFEF"/>
<path d="M9.89999 6.74999L8.99999 7.19999L9.29999 6.29999L8.69999 5.69999H9.59999L9.89999 4.79999L10.35 5.69999H11.1L10.5 6.29999L10.8 7.19999L9.89999 6.74999Z" fill="#EFEFEF"/>
<path d="M9.89999 3.45L8.99999 3.9L9.29999 3L8.69999 2.4H9.59999L9.89999 1.5L10.35 2.4H11.1L10.5 3L10.8 3.9L9.89999 3.45Z" fill="#EFEFEF"/>
<path d="M9.89999 0.150012L8.99999 0.600012L9.29999 -0.299988L8.69999 -0.899988H9.59999L9.89999 -1.79999L10.35 -0.899988H11.1L10.5 -0.299988L10.8 0.600012L9.89999 0.150012Z" fill="#EFEFEF"/>
<path d="M5.7 3.45L4.8 3.9L5.1 3L4.5 2.4H5.4L5.7 1.5L6.15 2.4H6.9L6.3 3L6.6 3.9L5.7 3.45Z" fill="#EFEFEF"/>
<path d="M5.7 6.74999L4.8 7.19999L5.1 6.29999L4.5 5.69999H5.4L5.7 4.79999L6.15 5.69999H6.9L6.3 6.29999L6.6 7.19999L5.7 6.74999Z" fill="#EFEFEF"/>
<path d="M1.50001 6.74999L0.600007 7.19999L0.900007 6.29999L0.300007 5.69999H1.20001L1.50001 4.79999L1.95001 5.69999H2.70001L2.10001 6.29999L2.40001 7.19999L1.50001 6.74999Z" fill="#EFEFEF"/>
</g>
</svg>
